<?xml version="1.0" standalone="no"?>
<!DOCTYPE svg PUBLIC "-//W3C//DTD SVG 20010904//EN"
 "http://www.w3.org/TR/2001/REC-SVG-20010904/DTD/svg10.dtd">
<svg version="1.0" xmlns="http://www.w3.org/2000/svg"
 width="1280.000000pt" height="720.000000pt" viewBox="0 0 1280.000000 720.000000"
 preserveAspectRatio="xMidYMid meet">

<g transform="translate(0.000000,720.000000) scale(0.100000,-0.100000)"
fill="#000000" stroke="none">
<path d="M0 3600 l0 -3600 434 0 433 0 16 83 c23 115 47 278 47 311 0 15 5 37
12 49 6 12 10 41 9 64 -2 34 1 41 16 40 15 -2 18 6 18 41 0 23 3 42 8 42 4 0
7 5 7 10 0 6 -7 10 -15 10 -17 0 -16 7 5 110 l9 45 -3 -42 c-2 -24 -1 -45 4
-48 13 -8 20 68 9 105 -8 27 -6 67 10 176 12 78 21 154 21 169 0 18 6 28 20
32 10 3 22 14 25 24 8 25 -4 61 -17 53 -20 -12 16 272 39 308 2 5 6 37 7 73 2
40 10 75 21 91 14 22 15 28 4 35 -12 7 -12 12 -1 29 7 11 10 25 7 30 -3 4 4
64 14 132 11 68 34 227 51 353 17 127 37 271 45 320 8 50 17 115 21 145 4 30
11 60 16 66 4 6 6 18 2 27 -3 8 -1 18 5 21 6 4 8 12 5 20 -3 7 11 123 31 257
48 323 51 345 69 479 9 63 20 140 26 170 5 30 12 75 15 100 3 25 13 88 21 140
8 52 17 113 20 135 3 22 12 74 21 115 8 41 15 82 15 90 0 8 3 35 8 60 5 25 19
108 30 185 12 77 32 199 45 270 13 72 33 200 44 285 12 85 28 196 36 245 8 50
19 137 25 195 6 58 18 150 26 205 8 55 17 127 20 160 3 33 8 67 11 75 3 8 7
29 9 45 17 149 27 196 40 191 15 -6 20 19 5 28 -11 7 -1 89 12 97 5 4 7 15 3
24 -3 10 1 46 10 81 8 35 13 73 9 84 -7 22 11 80 25 80 4 0 11 35 15 78 4 42
12 86 18 97 6 11 13 54 15 95 4 90 13 104 62 96 24 -4 43 -1 56 8 18 14 18 15
1 34 -10 11 -15 26 -11 36 4 11 1 16 -10 16 -9 0 -16 -8 -16 -19 0 -11 -5 -23
-10 -26 -5 -3 -10 -1 -10 6 0 7 -7 4 -15 -7 -14 -18 -14 -18 -15 4 0 13 -4 20
-10 17 -5 -3 -10 -2 -10 3 0 6 7 12 15 16 62 23 -34 26 -970 26 l-985 0 0
-3600z m615 -918 c17 -39 12 -92 -9 -92 -13 0 -40 116 -30 132 9 14 23 -1 39
-40z"/>
<path d="M8320 7178 c0 -27 15 -54 23 -42 8 13 -4 64 -14 64 -5 0 -9 -10 -9
-22z"/>
<path d="M9520 7191 c0 -5 18 -22 41 -38 22 -15 56 -40 76 -56 20 -15 38 -26
40 -24 4 5 -84 94 -112 113 -22 16 -45 18 -45 5z"/>
<path d="M9767 7193 c-3 -5 -7 -33 -8 -63 -4 -59 11 -84 22 -35 3 17 13 47 22
68 16 37 16 37 -8 37 -13 0 -26 -3 -28 -7z"/>
<path d="M10891 7174 c-29 -24 -39 -52 -25 -67 10 -10 34 4 35 22 1 17 27 -45
28 -67 1 -7 -10 -17 -24 -22 -14 -5 -25 -14 -25 -20 0 -5 11 -10 25 -10 14 0
25 -5 25 -10 0 -10 63 -4 84 8 12 7 -23 32 -38 26 -8 -3 -12 14 -13 56 -1 68
7 73 48 34 31 -30 56 -25 38 7 -6 11 -18 23 -27 26 -9 4 -28 15 -41 25 -32 25
-54 23 -90 -8z"/>
<path d="M11250 7175 c0 -20 -5 -25 -25 -25 -14 0 -25 -6 -26 -12 -4 -48 16
-118 33 -118 6 0 7 11 4 25 -3 14 -9 36 -12 50 -8 31 12 34 22 3 10 -29 5
-100 -7 -112 -15 -16 -10 -66 6 -72 20 -8 19 -33 -2 -57 -17 -18 -17 -19 0
-32 15 -10 18 -31 21 -116 2 -57 0 -112 -5 -121 -5 -10 -5 -27 0 -41 5 -13 13
-184 17 -381 4 -196 9 -354 12 -352 2 3 6 40 8 82 3 43 6 80 9 82 12 12 21
-12 16 -44 -12 -72 8 -180 21 -116 2 9 4 -11 4 -45 -1 -34 2 -65 6 -68 4 -4
23 9 42 29 30 29 36 43 36 76 0 24 7 48 15 56 19 20 19 30 -2 52 -14 13 -18
32 -17 78 1 34 5 71 9 83 9 28 -19 71 -45 71 -17 0 -20 7 -20 50 l0 50 35 0
c43 0 46 18 5 33 -36 14 -40 37 -5 37 14 0 25 4 25 9 0 13 -27 21 -46 14 -21
-8 -34 13 -34 55 0 44 25 53 55 20 13 -14 27 -42 30 -62 4 -20 11 -36 16 -36
16 0 10 23 -18 83 -22 44 -34 59 -55 63 -16 4 -28 9 -29 13 0 3 -2 15 -4 26
-5 26 10 34 56 28 30 -4 39 -2 39 9 0 10 -14 18 -39 22 -25 4 -46 15 -55 28
-15 21 -14 24 9 46 14 12 25 26 25 30 0 4 -13 24 -29 43 -21 25 -32 52 -37 89
-7 52 -7 52 17 45 28 -8 59 -41 59 -62 0 -8 5 -11 10 -8 27 17 -17 81 -61 90
-20 5 -31 14 -35 32 -11 42 16 48 48 10 37 -42 54 -28 38 33 -10 36 -14 41
-33 36 -34 -8 -75 14 -79 44 -6 42 2 62 20 54 10 -4 31 -8 47 -8 24 -1 31 4
33 21 4 29 -25 73 -49 73 -28 0 -33 -19 -6 -29 26 -10 44 -41 24 -41 -7 0 -27
9 -44 20 -27 16 -33 26 -33 55 0 19 -4 35 -10 35 -5 0 -10 -11 -10 -25z m50
-209 c0 -11 -19 -15 -25 -6 -3 5 1 10 9 10 9 0 16 -2 16 -4z m-1 -215 c1 -38
-12 -15 -15 27 -2 28 -1 32 6 17 5 -11 9 -31 9 -44z m51 -70 c0 -6 -4 -13 -10
-16 -5 -3 -10 1 -10 9 0 9 5 16 10 16 6 0 10 -4 10 -9z m-30 -92 c0 -18 -5
-29 -14 -29 -18 0 -26 22 -26 68 l1 37 19 -24 c11 -13 20 -36 20 -52z m8 -97
c4 -35 -3 -39 -31 -18 -15 12 -17 18 -7 36 16 29 34 20 38 -18z m-12 -60 c7
-4 13 -27 14 -52 5 -80 2 -90 -22 -90 -24 0 -24 3 -19 138 1 14 10 15 27 4z
m22 -239 c3 -62 2 -63 -23 -63 -24 0 -25 2 -25 66 0 62 1 65 23 62 20 -3 22
-9 25 -65z m68 -91 c-9 -9 -37 8 -31 18 5 8 11 7 21 -1 8 -6 12 -14 10 -17z
m-72 -69 c-10 -30 -34 -43 -34 -19 0 9 5 16 10 16 6 0 10 17 11 38 0 34 1 35
11 14 8 -15 8 -32 2 -49z m56 7 c0 -11 -4 -20 -8 -20 -4 0 -8 9 -8 20 0 11 4
20 8 20 4 0 8 -9 8 -20z m12 -79 c5 -34 -7 -75 -15 -51 -15 42 -16 80 -3 80 8
0 16 -13 18 -29z m-2 -125 c0 -15 -7 -26 -19 -29 -15 -4 -18 -1 -13 12 6 15
24 40 30 41 1 0 2 -11 2 -24z m-19 -79 c-10 -9 -11 -8 -5 6 3 10 9 15 12 12 3
-3 0 -11 -7 -18z"/>
<path d="M11375 7190 c3 -5 13 -10 21 -10 8 0 14 5 14 10 0 6 -9 10 -21 10
-11 0 -17 -4 -14 -10z"/>
<path d="M2071 7174 c0 -11 3 -14 6 -6 3 7 2 16 -1 19 -3 4 -6 -2 -5 -13z"/>
<path d="M2098 7123 c12 -2 32 -2 45 0 12 2 2 4 -23 4 -25 0 -35 -2 -22 -4z"/>
<path d="M11500 7100 c0 -5 5 -10 10 -10 6 0 10 5 10 10 0 6 -4 10 -10 10 -5
0 -10 -4 -10 -10z"/>
<path d="M9516 7091 c-3 -5 11 -11 32 -13 41 -6 47 -4 37 11 -8 13 -62 15 -69
2z"/>
<path d="M1911 6844 c0 -11 3 -14 6 -6 3 7 2 16 -1 19 -3 4 -6 -2 -5 -13z"/>
<path d="M1930 6825 c0 -16 6 -25 15 -25 9 0 15 9 15 25 0 16 -6 25 -15 25 -9
0 -15 -9 -15 -25z"/>
<path d="M6635 6673 c28 -65 44 -125 45 -165 l0 -48 -43 0 c-50 0 -83 -19 -74
-44 8 -20 27 -21 27 -2 0 20 14 27 62 31 l41 3 -2 68 c-3 79 -8 108 -28 147
-15 30 -40 39 -28 10z"/>
<path d="M6010 6649 c-86 -20 -464 -89 -486 -89 -13 0 -24 -5 -24 -11 0 -16
77 -6 280 35 96 19 191 38 210 41 36 5 68 21 60 28 -3 2 -21 0 -40 -4z"/>
<path d="M5680 6435 c0 -50 4 -85 10 -85 6 0 10 35 10 85 0 50 -4 85 -10 85
-6 0 -10 -35 -10 -85z"/>
<path d="M7550 6465 c-5 -14 -13 -37 -16 -50 -6 -24 -27 -45 -120 -122 l-52
-43 -13 33 c-8 18 -12 56 -10 89 2 47 0 59 -14 64 -29 11 -36 -8 -25 -69 16
-82 -13 -127 -80 -127 -32 0 -39 4 -44 25 -4 14 -13 25 -21 25 -8 0 -25 11
-39 25 -30 30 -69 32 -96 5 -24 -24 -25 -49 -5 -76 21 -27 19 -34 -10 -34 -74
0 -116 63 -95 142 14 51 46 98 67 98 8 0 13 6 11 13 -8 23 -32 12 -62 -31 -24
-34 -31 -55 -34 -107 -4 -61 -3 -66 28 -96 l31 -32 86 6 c47 3 95 13 107 20
15 10 28 12 45 5 36 -13 77 -1 108 33 l28 29 12 -23 c7 -12 12 -32 13 -44 0
-14 6 -23 15 -23 8 0 15 9 15 19 0 11 29 45 68 80 67 61 67 61 70 34 7 -76 13
-93 32 -93 22 0 27 29 10 61 -9 16 -7 21 12 29 22 8 22 9 -4 9 -36 1 -36 23
-2 72 17 25 24 44 19 58 -9 28 -23 26 -35 -4z m-220 -75 c0 -16 -4 -30 -10
-30 -5 0 -10 14 -10 30 0 17 5 30 10 30 6 0 10 -13 10 -30z m-212 -111 c3 -30
-1 -37 -23 -47 -33 -15 -62 -1 -71 33 -9 36 12 57 55 53 33 -3 36 -6 39 -39z"/>
<path d="M5752 6437 c-23 -25 -29 -52 -12 -62 6 -3 10 2 10 13 0 21 36 59 47
48 4 -3 6 -27 4 -51 -1 -25 2 -45 7 -45 5 0 21 18 36 41 27 40 27 40 44 19 17
-20 53 -42 122 -76 28 -13 43 -15 75 -6 31 8 43 7 59 -4 11 -8 34 -14 51 -13
l30 1 -33 8 c-43 10 -49 17 -34 40 17 28 15 70 -4 77 -21 8 -44 -22 -44 -58 0
-40 -65 -55 -106 -24 -19 14 -19 15 5 33 27 22 22 62 -9 62 -22 0 -50 -26 -50
-46 0 -8 -4 -14 -10 -14 -15 0 -50 38 -50 55 0 26 -25 16 -45 -17 l-20 -33 -5
35 c-6 44 -36 51 -68 17z m253 -27 c3 -6 -1 -13 -10 -16 -19 -8 -30 0 -20 15
8 14 22 14 30 1z m145 -25 c0 -14 -4 -25 -10 -25 -11 0 -14 33 -3 43 11 11 13
8 13 -18z"/>
<path d="M11440 6440 c0 -5 5 -10 11 -10 5 0 7 5 4 10 -3 6 -8 10 -11 10 -2 0
-4 -4 -4 -10z"/>
<path d="M6634 6370 c-6 -52 -10 -62 -33 -73 -29 -14 -40 -59 -20 -83 18 -22
25 -17 46 35 17 40 26 49 53 55 50 9 53 8 46 -19 -4 -14 -3 -31 1 -37 9 -15
34 91 27 115 -8 26 -24 21 -24 -8 0 -26 -3 -29 -54 -40 l-29 -6 6 60 c7 79
-10 80 -19 1z m-26 -122 l-13 -23 -3 24 c-2 13 2 27 10 32 18 12 22 -5 6 -33z"/>
<path d="M1803 6109 c-13 -5 -23 -13 -23 -19 0 -14 17 -13 24 3 5 10 7 10 12
0 8 -18 24 -16 24 1 0 21 -11 25 -37 15z"/>
<path d="M5852 6055 c1 -9 6 -16 11 -16 4 1 86 1 182 1 100 0 175 4 175 9 0 5
-70 9 -162 8 -90 0 -174 3 -186 7 -19 6 -23 5 -20 -9z"/>
<path d="M6584 6025 c4 -11 -10 -23 -49 -42 -30 -15 -55 -30 -55 -33 0 -3 29
8 65 25 43 20 65 36 65 48 0 9 -7 17 -16 17 -10 0 -14 -5 -10 -15z"/>
<path d="M6000 6009 c0 -40 21 -143 31 -153 13 -14 11 27 -5 102 -15 68 -26
90 -26 51z"/>
<path d="M6480 6016 c-20 -6 -52 -21 -73 -33 -30 -18 -37 -28 -37 -53 0 -32 7
-36 142 -93 75 -32 55 -87 -31 -87 -66 0 -89 9 -93 34 -2 13 -6 17 -10 10 -5
-7 0 -22 10 -33 14 -18 28 -22 86 -22 57 -1 72 3 90 20 33 34 7 68 -81 106
-90 38 -106 51 -92 76 15 28 53 50 122 70 43 12 53 17 32 17 -16 0 -46 -5 -65
-12z"/>
<path d="M6762 6000 c-54 -8 -77 -19 -55 -27 10 -3 11 -30 7 -106 -6 -95 -5
-104 15 -124 25 -26 91 -30 151 -10 36 12 49 46 21 55 -9 3 -11 -1 -7 -16 6
-18 1 -22 -31 -31 -86 -24 -133 -4 -133 58 0 37 1 37 53 51 37 10 46 15 29 18
-13 2 -36 -1 -53 -7 -34 -12 -35 -8 -17 68 13 57 14 57 142 71 l71 7 -70 0
c-38 0 -94 -3 -123 -7z"/>
<path d="M12280 5981 c-12 -9 -9 -11 13 -11 15 0 27 -4 27 -10 0 -5 19 -10 43
-11 l42 -1 -34 -10 c-19 -5 -30 -13 -24 -16 6 -4 13 -17 17 -29 4 -13 14 -23
22 -23 19 0 18 20 -3 36 -17 12 -16 13 6 14 21 0 23 -3 19 -45 -4 -58 18 -69
63 -31 18 15 43 26 60 26 35 0 38 18 6 48 -14 14 -30 19 -44 16 -11 -3 -24 -1
-27 5 -4 6 -14 11 -23 11 -9 0 -24 6 -32 14 -21 19 -111 30 -131 17z"/>
<path d="M6848 5873 c7 -3 16 -2 19 1 4 3 -2 6 -13 5 -11 0 -14 -3 -6 -6z"/>
<path d="M12318 5807 c-34 -13 -36 -32 -6 -48 18 -10 24 -8 35 7 14 19 18 55
6 53 -5 -1 -20 -6 -35 -12z"/>
<path d="M11280 5763 c0 -24 3 -33 9 -25 7 12 4 62 -5 62 -2 0 -4 -17 -4 -37z"/>
<path d="M1795 5640 c3 -5 8 -10 11 -10 2 0 4 5 4 10 0 6 -5 10 -11 10 -5 0
-7 -4 -4 -10z"/>
<path d="M1870 5630 c0 -5 5 -10 10 -10 6 0 10 5 10 10 0 6 -4 10 -10 10 -5 0
-10 -4 -10 -10z"/>
<path d="M1740 5536 c0 -9 5 -16 10 -16 6 0 10 4 10 9 0 6 -4 13 -10 16 -5 3
-10 -1 -10 -9z"/>
<path d="M6455 5513 c14 -36 22 -125 17 -203 l-5 -80 -26 16 c-14 9 -38 32
-52 53 -28 40 -99 72 -99 45 0 -8 10 -14 22 -14 15 0 48 -27 100 -82 70 -73
78 -79 78 -56 0 15 6 29 13 31 10 4 10 6 0 6 -10 1 -13 32 -13 120 0 115 -12
181 -32 181 -6 0 -7 -8 -3 -17z"/>
<path d="M1715 5470 c-3 -5 1 -10 10 -10 9 0 13 5 10 10 -3 6 -8 10 -10 10 -2
0 -7 -4 -10 -10z"/>
<path d="M1770 5400 c0 -22 5 -40 10 -40 6 0 10 1 10 3 11 72 11 77 -4 77 -12
0 -16 -10 -16 -40z"/>
<path d="M1695 5420 c3 -5 11 -10 16 -10 6 0 7 5 4 10 -3 6 -11 10 -16 10 -6
0 -7 -4 -4 -10z"/>
<path d="M6601 5332 c-7 -30 -33 -76 -66 -120 -30 -39 -55 -75 -55 -79 2 -21
113 118 129 162 11 28 22 58 26 68 5 11 2 17 -7 17 -9 0 -19 -19 -27 -48z"/>
<path d="M1707 5323 c-4 -3 -7 -11 -7 -17 0 -6 5 -5 12 2 6 6 9 14 7 17 -3 3
-9 2 -12 -2z"/>
<path d="M5890 5217 c-85 -42 -72 -211 21 -276 21 -14 38 -32 39 -40 0 -7 -17
-44 -37 -82 -35 -63 -41 -69 -70 -69 -36 0 -83 -18 -83 -32 0 -23 23 -48 43
-48 13 0 36 13 51 29 25 26 31 27 69 20 60 -12 151 -11 202 2 64 16 80 39 78
110 l-1 59 51 15 c28 8 54 15 58 15 4 0 3 -19 -3 -42 -9 -41 -3 -116 9 -105 3
3 6 33 7 66 2 36 9 70 20 86 10 15 16 28 14 31 -2 2 -31 -8 -64 -21 -93 -39
-96 -37 -132 58 -42 109 -92 175 -161 210 -61 30 -75 32 -111 14z m121 -35
c66 -43 97 -87 138 -196 31 -84 31 -86 -38 -86 -77 0 -121 9 -121 26 0 8 16
53 36 100 21 52 33 93 28 103 -5 12 -10 5 -20 -26 -10 -35 -61 -159 -70 -171
-2 -2 -15 4 -31 13 -39 23 -72 77 -79 129 -17 121 57 172 157 108z m167 -297
c14 -5 17 -88 2 -114 -11 -22 -28 -29 -93 -42 -48 -9 -155 -2 -177 11 -8 5 0
29 25 81 l37 75 97 -4 c53 -2 102 -5 109 -7z m-330 -167 c-2 -6 -14 -18 -26
-26 -19 -13 -22 -12 -28 3 -4 10 -1 21 7 26 20 13 51 11 47 -3z"/>
<path d="M6310 5085 c0 -9 11 -20 25 -25 14 -5 44 -19 67 -30 55 -26 74 -25
23 2 -22 11 -53 31 -68 44 -33 28 -47 30 -47 9z"/>
<path d="M7585 4978 c-16 -51 -34 -97 -41 -103 -7 -5 -14 -19 -16 -30 -4 -26
-51 -32 -83 -11 -32 21 -55 20 -55 -1 -1 -26 -35 -63 -59 -63 -24 0 -36 36
-27 81 3 17 2 29 -2 27 -4 -2 -35 -18 -69 -36 -41 -21 -63 -28 -63 -20 0 25
-19 42 -47 44 -15 1 -27 5 -27 10 1 5 7 40 13 78 11 65 9 88 -6 72 -4 -3 -10
-32 -14 -64 -10 -77 -17 -116 -29 -147 -12 -33 -13 -55 -1 -55 5 0 16 19 23
43 12 34 20 43 41 45 23 3 27 0 27 -22 0 -14 -10 -33 -25 -44 -14 -11 -25 -23
-25 -26 0 -14 28 -5 46 15 10 12 45 34 77 50 l57 29 0 -26 c0 -32 15 -60 35
-68 23 -8 69 18 83 48 11 25 12 25 47 10 20 -8 45 -12 56 -9 15 5 22 1 26 -15
9 -33 25 -18 41 38 15 53 18 56 85 68 l37 6 -1 -45 c-2 -52 13 -77 47 -77 40
0 75 40 81 93 3 26 9 49 12 52 4 2 25 -6 46 -19 39 -22 40 -23 37 -74 -1 -32
2 -52 8 -52 13 0 30 43 30 76 0 14 12 36 26 51 34 34 24 40 -15 8 l-31 -27
-29 21 c-16 12 -33 21 -38 21 -4 0 -21 7 -37 15 -34 18 -42 14 -25 -13 28 -45
-30 -153 -74 -137 -38 15 -24 84 21 105 40 19 33 31 -11 20 -18 -4 -58 -11
-89 -14 -67 -7 -67 -7 -38 80 22 65 24 84 12 84 -5 0 -22 -42 -37 -92z"/>
<path d="M6921 5013 c2 -31 3 -33 6 -10 3 17 11 27 21 27 15 0 15 2 2 10 -25
16 -30 12 -29 -27z"/>
<path d="M6661 4946 l-94 -94 -49 36 c-26 20 -48 39 -48 42 1 19 25 32 81 44
70 15 65 22 -26 29 -55 5 -58 5 -30 -7 l30 -13 -27 -6 c-15 -4 -32 -16 -38
-27 -9 -17 -6 -25 18 -48 16 -15 40 -34 53 -43 l24 -17 -25 -26 c-29 -31 -19
-59 22 -64 37 -5 55 22 40 61 -12 31 -11 33 55 99 37 38 72 68 78 68 6 0 9
-16 8 -37 -8 -119 -9 -163 -3 -163 3 0 14 18 24 40 18 41 62 84 77 74 5 -3 9
-30 9 -60 0 -55 13 -73 24 -31 8 33 44 77 63 77 12 0 14 -8 10 -37 -4 -21 -3
-44 2 -52 9 -15 21 73 13 97 -7 20 -34 14 -63 -14 l-27 -26 -7 31 c-8 37 -34
41 -73 10 l-27 -21 -3 56 c-2 30 2 64 8 75 12 23 13 41 3 41 -5 0 -50 -43
-102 -94z m-81 -146 c0 -11 -9 -24 -20 -30 -23 -12 -25 -3 -9 34 13 28 29 26
29 -4z"/>
<path d="M12460 4975 c-10 -12 -10 -29 -1 -82 6 -38 17 -111 26 -163 11 -69
20 -100 36 -115 l20 -20 -4 65 c-5 77 -46 312 -57 323 -4 4 -13 1 -20 -8z"/>
<path d="M1680 4616 c0 -9 5 -16 10 -16 6 0 10 4 10 9 0 6 -4 13 -10 16 -5 3
-10 -1 -10 -9z"/>
<path d="M6723 4549 c6 -40 -13 -249 -23 -249 -4 0 -12 10 -19 23 -6 12 -9 14
-7 5 10 -36 -20 -5 -44 45 -24 49 -27 52 -67 55 -24 2 -43 -1 -43 -7 0 -5 17
-11 38 -13 33 -3 40 -8 62 -49 33 -60 72 -106 95 -110 16 -4 15 -8 -9 -36 -15
-18 -23 -33 -18 -33 5 0 23 16 39 35 17 19 37 35 45 35 8 0 23 10 34 23 l19
22 -23 -19 c-32 -28 -34 -17 -4 33 22 37 27 41 32 25 5 -14 9 -8 15 24 11 66
-8 75 -35 16 -28 -64 -62 -114 -77 -114 -15 0 -15 3 -3 95 15 118 15 218 0
223 -9 3 -11 -4 -7 -29z"/>
<path d="M1576 4533 c-11 -11 -6 -23 9 -23 8 0 15 4 15 9 0 13 -16 22 -24 14z"/>
<path d="M1620 4476 c0 -9 30 -14 35 -6 4 6 -3 10 -14 10 -12 0 -21 -2 -21 -4z"/>
<path d="M1701 4464 c0 -11 3 -14 6 -6 3 7 2 16 -1 19 -3 4 -6 -2 -5 -13z"/>
<path d="M1737 4404 c-8 -8 1 -24 14 -24 5 0 9 7 9 15 0 15 -12 20 -23 9z"/>
<path d="M12133 4324 c-17 -7 -4 -34 17 -34 10 0 23 7 30 15 8 9 8 15 2 15 -6
0 -16 2 -24 4 -7 3 -18 2 -25 0z"/>
<path d="M12033 4223 c-7 -2 -13 -14 -13 -25 0 -14 6 -19 23 -16 14 2 22 10
22 22 0 21 -12 28 -32 19z"/>
<path d="M11794 4146 c-8 -21 3 -36 27 -36 25 0 24 22 -1 38 -17 10 -21 10
-26 -2z"/>
<path d="M12430 4152 c0 -5 11 -19 25 -32 24 -22 25 -22 25 -4 0 11 -5 25 -12
32 -14 14 -38 16 -38 4z"/>
<path d="M12110 4090 c0 -5 -7 -10 -15 -10 -24 0 -17 -24 12 -37 32 -15 53 -2
53 33 0 19 -5 24 -25 24 -14 0 -25 -4 -25 -10z"/>
<path d="M12457 4079 c7 -7 15 -10 18 -7 3 3 -2 9 -12 12 -14 6 -15 5 -6 -5z"/>
<path d="M12318 4064 c-33 -18 -34 -24 -9 -46 14 -11 22 -13 30 -5 6 6 14 7
18 3 5 -4 -2 -16 -15 -26 l-23 -19 30 -15 c17 -9 37 -16 46 -16 9 0 14 -4 11
-8 -2 -4 12 -8 31 -8 20 0 38 -5 41 -12 2 -7 21 -12 41 -12 l38 0 1 46 c0 28
7 53 17 64 16 17 15 19 -7 31 -13 6 -26 16 -29 21 -3 5 -14 9 -25 8 -44 -1
-62 0 -114 4 -38 4 -64 0 -82 -10z m167 -84 c3 -5 0 -7 -8 -4 -8 3 -18 1 -22
-5 -8 -13 -25 -14 -25 -2 0 8 15 15 42 20 4 0 10 -3 13 -9z"/>
<path d="M12174 4049 c-10 -17 13 -36 27 -22 12 12 4 33 -11 33 -5 0 -12 -5
-16 -11z"/>
<path d="M5922 4030 c-32 -30 -37 -65 -16 -111 16 -38 61 -85 100 -107 15 -8
14 -15 -16 -69 -28 -51 -36 -59 -56 -55 -33 6 -54 -14 -54 -54 0 -49 19 -53
55 -10 31 37 32 38 61 23 83 -42 180 -42 225 -1 18 16 19 16 19 -4 0 -13 6
-22 15 -22 8 0 15 5 15 10 0 6 -4 10 -10 10 -16 0 -11 56 10 112 11 29 20 54
20 56 0 2 -16 0 -35 -4 -31 -6 -35 -4 -41 22 -10 42 -49 116 -80 153 -56 67
-166 93 -212 51z m126 -9 c56 -29 109 -90 136 -156 13 -33 23 -62 21 -64 -6
-5 -95 -3 -126 4 l-28 6 30 62 c33 70 36 87 14 87 -9 0 -15 -9 -15 -25 0 -21
-31 -97 -46 -114 -1 -2 -18 6 -36 17 -43 27 -78 75 -85 115 -4 29 0 36 33 60
46 32 54 33 102 8z m90 -237 c73 -8 82 -14 82 -59 0 -70 -26 -95 -95 -95 -34
0 -145 36 -145 47 0 3 15 32 32 64 20 36 38 57 46 54 7 -2 43 -8 80 -11z m117
-16 c-12 -39 -25 -44 -25 -10 0 22 5 32 16 32 11 0 14 -6 9 -22z m-319 -99 c3
-6 -3 -21 -15 -32 -17 -18 -21 -19 -21 -5 0 39 21 61 36 37z"/>
<path d="M11938 4020 c-7 -11 -21 -20 -30 -20 -23 0 -24 -28 -2 -37 14 -5 15
-16 10 -65 l-6 -58 34 0 c28 0 35 4 41 27 5 21 8 24 15 13 7 -12 12 -12 22 -2
9 9 9 15 1 23 -6 6 -9 17 -6 24 3 9 -5 15 -24 17 -26 3 -28 6 -25 45 4 47 -11
64 -30 33z"/>
<path d="M8540 3983 c-63 -24 -105 -48 -135 -79 -39 -39 -44 -70 -18 -115 16
-27 16 -29 -3 -51 l-19 -22 27 17 c28 17 28 17 88 -27 l61 -44 -42 -23 c-81
-46 -81 -89 1 -89 67 0 90 13 90 50 0 16 -4 32 -10 35 -12 8 -13 25 -1 25 5 0
11 -9 14 -20 3 -11 17 -24 31 -30 27 -10 83 -3 92 11 3 5 24 9 46 9 26 0 57 9
83 25 43 25 55 24 55 -5 0 -26 38 -60 68 -60 15 0 38 6 52 13 14 8 42 12 62 9
19 -2 46 1 58 8 17 9 24 9 33 -3 36 -43 111 -63 123 -32 3 8 -6 40 -20 71 -17
36 -26 74 -26 105 0 47 -19 72 -21 27 -1 -42 -7 -59 -34 -94 -34 -44 -80 -73
-106 -67 -23 6 -23 5 1 45 25 42 26 74 1 81 -10 2 -24 1 -30 -2 -16 -10 -32
-70 -25 -96 4 -18 -2 -25 -31 -39 -33 -16 -38 -16 -60 -2 -34 22 -43 87 -17
123 56 80 94 223 59 223 -31 0 -82 -119 -91 -210 -5 -51 -23 -69 -92 -96 -51
-19 -60 -15 -70 34 -5 26 -3 32 10 32 10 0 14 5 11 11 -14 22 -126 -11 -163
-47 -7 -8 -18 -14 -23 -14 -11 0 -128 83 -129 91 0 3 29 27 65 53 76 55 138
127 133 153 -2 13 -14 19 -43 20 -22 1 -47 -1 -55 -4z m85 -23 c6 -10 -93
-114 -134 -140 -13 -8 -34 -23 -46 -33 -23 -17 -24 -17 -39 5 -37 53 -9 101
89 151 51 26 119 35 130 17z m346 -96 c-14 -56 -51 -120 -51 -88 0 21 33 124
46 146 14 22 17 -11 5 -58z m119 -147 c0 -19 -27 -53 -36 -45 -9 10 12 58 26
58 5 0 10 -6 10 -13z m-400 -35 c0 -10 6 -24 12 -30 10 -10 10 -15 -2 -22 -25
-16 -66 -11 -84 9 -22 24 -15 38 27 50 46 13 47 13 47 -7z m568 -22 c33 -59
30 -74 -14 -67 -20 3 -45 14 -55 23 -18 16 -17 18 8 50 14 19 28 34 32 34 3 0
16 -18 29 -40z m-693 -55 c0 -25 -5 -30 -35 -37 -71 -15 -94 15 -37 50 46 29
72 25 72 -13z"/>
<path d="M11760 3920 c0 -16 7 -20 30 -20 28 0 30 2 20 20 -6 11 -20 20 -30
20 -13 0 -20 -7 -20 -20z"/>
<path d="M12316 3924 c-3 -9 -6 -24 -6 -35 0 -18 2 -19 29 -5 38 20 46 42 18
50 -32 8 -34 8 -41 -10z"/>
<path d="M6270 3900 c6 -11 15 -20 21 -20 5 0 27 -12 49 -26 22 -15 43 -24 47
-20 3 3 2 6 -4 6 -6 0 -33 18 -59 40 -54 44 -70 50 -54 20z"/>
<path d="M7004 3900 c3 -14 6 -28 6 -32 0 -5 5 -8 11 -8 12 0 2 39 -13 55 -7
7 -9 2 -4 -15z"/>
<path d="M7169 3893 c-1 -5 -1 -11 0 -15 0 -3 -6 -41 -14 -83 -8 -42 -15 -79
-15 -81 0 -2 -7 -4 -15 -4 -8 0 -15 -4 -15 -10 0 -5 5 -10 11 -10 7 0 8 -14 4
-40 -6 -33 -4 -40 9 -40 10 0 16 9 16 21 0 29 27 48 68 49 25 0 32 -4 32 -19
0 -13 -9 -20 -30 -25 -66 -13 -124 -86 -69 -86 26 0 84 34 102 61 8 11 33 23
60 28 44 8 46 7 52 -18 14 -56 53 -68 81 -26 15 23 19 24 33 12 28 -25 55 -28
94 -8 20 10 37 15 37 10 0 -5 9 -9 20 -9 14 0 23 11 31 41 13 41 25 50 86 65
23 6 24 5 14 -14 -17 -32 -13 -87 7 -105 28 -25 76 -22 89 6 20 40 22 55 13
86 -6 23 -5 31 7 35 51 20 99 -8 108 -62 16 -91 35 -100 35 -15 0 64 24 106
85 143 20 12 34 25 31 28 -9 8 -86 -49 -114 -84 -25 -32 -25 -32 -42 -11 -14
16 -28 20 -70 19 -62 -1 -77 -11 -60 -42 15 -28 5 -86 -17 -99 -11 -5 -25 -5
-40 2 -45 20 -23 111 32 132 47 18 -10 15 -76 -4 l-71 -20 6 57 c4 31 10 72
13 90 10 61 -13 32 -31 -40 -38 -150 -83 -213 -144 -206 -19 2 -31 12 -42 35
-18 39 -30 42 -30 9 0 -27 -24 -56 -45 -56 -18 0 -31 58 -16 73 16 16 14 47
-3 47 -8 0 -17 -11 -20 -24 -5 -19 -15 -26 -47 -31 -22 -4 -41 -5 -42 -3 -22
41 -26 43 -71 41 -54 -3 -55 -1 -31 112 8 38 15 76 15 82 0 14 -19 18 -21 6z
m472 -260 c-8 -15 -10 -15 -11 -2 0 17 10 32 18 25 2 -3 -1 -13 -7 -23z m-401
-12 c0 -11 -62 -51 -80 -51 -20 0 10 31 45 46 37 16 35 16 35 5z"/>
<path d="M9634 3870 c-24 -54 -64 -184 -64 -206 0 -13 5 -24 10 -24 6 0 10 10
10 21 0 31 22 99 32 99 4 0 8 -7 8 -15 0 -9 7 -30 16 -47 14 -26 20 -29 45
-24 23 4 31 2 36 -12 19 -54 72 -67 128 -31 50 32 56 33 71 10 19 -26 49 -27
67 -1 13 19 14 19 40 -10 15 -17 34 -30 42 -30 20 0 40 39 26 53 -7 7 -12 5
-17 -6 -10 -26 -23 -20 -46 19 l-21 35 -27 -33 c-24 -28 -30 -31 -44 -19 -9 7
-16 21 -16 30 0 9 -4 23 -10 31 -7 11 -11 9 -19 -11 -5 -15 -17 -29 -25 -32
-13 -5 -16 1 -16 29 0 63 -35 95 -68 62 -23 -23 -9 -100 22 -120 19 -12 -21
-20 -43 -8 -26 14 -35 49 -28 111 8 62 -7 64 -22 4 -12 -48 -34 -66 -54 -46
-7 7 -14 53 -17 104 -5 78 -7 88 -16 67z m211 -140 c8 -25 -3 -80 -15 -80 -25
0 -39 67 -18 88 17 17 26 15 33 -8z"/>
<path d="M6465 3829 c-16 -5 -39 -6 -50 -3 -15 4 -16 3 -6 -4 8 -6 11 -17 8
-27 -10 -25 18 -70 59 -95 29 -18 34 -27 29 -44 -4 -11 -8 -32 -9 -46 -1 -20
4 -25 24 -25 23 0 25 4 25 49 1 52 -1 50 93 123 37 29 52 22 52 -26 0 -13 5
-53 11 -88 11 -63 29 -77 29 -23 0 42 61 104 92 95 46 -14 54 -39 33 -115 l-7
-25 21 24 c12 13 21 29 21 36 0 14 68 75 82 75 5 0 8 -25 8 -55 0 -30 5 -55
10 -55 6 0 10 30 10 70 0 79 -5 81 -73 28 -21 -17 -39 -28 -41 -27 -1 2 -10
16 -19 32 -25 40 -79 38 -118 -4 -16 -18 -32 -29 -35 -26 -3 3 -7 40 -7 81 -2
67 -8 92 -19 69 -1 -5 -30 -30 -63 -57 -33 -27 -68 -59 -77 -70 -16 -20 -17
-20 -65 20 -66 56 -64 78 6 84 57 5 78 23 39 34 -27 7 -24 7 -63 -5z m48 -16
c-7 -2 -19 -2 -25 0 -7 3 -2 5 12 5 14 0 19 -2 13 -5z m27 -200 c0 -7 -7 -13
-15 -13 -16 0 -19 9 -9 35 5 13 8 14 15 3 5 -7 9 -19 9 -25z"/>
<path d="M7001 3804 c0 -11 3 -14 6 -6 3 7 2 16 -1 19 -3 4 -6 -2 -5 -13z"/>
<path d="M12097 3700 c3 -11 12 -20 19 -20 10 0 14 -13 14 -40 0 -22 -5 -40
-11 -40 -19 0 -39 -28 -39 -54 0 -24 -3 -26 -46 -26 -38 0 -49 -5 -71 -31 -16
-19 -31 -28 -41 -24 -19 7 -112 -89 -112 -114 0 -9 -6 -25 -13 -36 -7 -11 -19
-39 -27 -63 -16 -52 -32 -66 -65 -58 -24 6 -36 -9 -13 -16 7 -3 9 -12 4 -23
-5 -15 -9 -16 -15 -6 -6 8 -16 11 -31 6 -16 -5 -19 -10 -11 -18 14 -14 15 -97
1 -97 -5 0 -10 -18 -10 -40 0 -29 -4 -40 -15 -40 -8 0 -15 9 -15 20 0 11 -6
20 -14 20 -8 0 -17 8 -20 17 -4 10 -10 13 -16 7 -10 -10 17 -194 42 -294 15
-62 24 -120 48 -299 11 -85 24 -159 29 -165 4 -6 9 -38 10 -71 1 -33 6 -64 10
-70 5 -5 11 -41 14 -80 10 -123 37 -329 45 -335 4 -3 8 -43 10 -90 1 -47 6
-94 12 -105 9 -21 29 -192 37 -327 l5 -78 -150 0 c-82 0 -171 -3 -197 -6 l-47
-7 6 -36 c3 -20 10 -78 16 -130 5 -52 14 -99 20 -105 5 -5 10 -23 10 -38 0
-33 9 -35 33 -8 12 14 29 20 57 20 22 0 40 -4 40 -8 0 -4 16 -14 36 -21 31
-11 34 -15 23 -27 -9 -9 -13 -30 -11 -59 3 -36 8 -45 23 -45 15 0 19 -7 19
-40 l0 -40 -45 0 c-39 0 -45 3 -45 21 0 18 -2 19 -15 9 -10 -8 -15 -30 -15
-61 0 -46 -2 -49 -25 -49 -21 0 -25 -5 -25 -30 0 -32 -6 -36 -29 -21 -12 8
-13 15 -4 34 10 22 9 24 -15 25 -15 0 -92 5 -172 10 -80 6 -221 13 -315 17
-424 15 -505 16 -505 6 0 -5 8 -12 18 -14 16 -4 16 -5 0 -6 -13 -1 -18 -9 -18
-28 0 -14 -8 -35 -17 -45 -15 -16 -15 -21 -3 -28 12 -7 11 -12 -5 -30 -19 -21
-19 -21 3 -27 12 -3 22 -9 22 -14 0 -5 6 -9 13 -9 7 0 46 -14 87 -31 l75 -32
164 6 163 6 -7 -26 c-3 -14 -17 -40 -31 -58 -13 -17 -24 -37 -24 -43 0 -7 -9
-17 -20 -24 -11 -7 -20 -18 -20 -25 0 -7 -5 -13 -11 -13 -8 0 -8 -5 1 -15 10
-12 10 -15 -4 -15 -9 0 -16 -4 -16 -9 0 -5 -3 -16 -6 -25 -5 -13 2 -16 45 -16
41 0 49 3 45 15 -4 9 0 15 10 15 19 0 21 16 4 23 -9 3 -6 10 9 23 12 10 30 36
41 56 11 21 42 61 70 89 l52 52 78 4 c62 4 81 1 91 -11 10 -12 18 -13 32 -6
23 13 39 -13 39 -64 0 -20 3 -36 8 -36 4 0 7 18 7 40 0 22 -3 40 -7 40 -5 0
-8 7 -8 16 0 13 6 11 26 -10 29 -28 39 -32 49 -16 3 6 -2 10 -11 10 -11 0 -14
3 -8 9 5 5 34 5 69 0 33 -5 90 -6 128 -3 44 4 67 3 67 -4 0 -6 18 -28 40 -49
38 -38 40 -42 42 -114 l3 -74 47 -3 46 -3 7 80 c6 73 9 81 28 81 11 0 38 -18
59 -40 22 -22 44 -40 49 -40 5 0 9 -18 9 -40 l0 -40 395 0 395 0 0 1815 0
1815 -40 0 c-29 0 -40 -4 -40 -15 0 -23 -20 -18 -42 10 l-20 26 -129 -7 c-127
-7 -129 -7 -129 15 0 14 -6 21 -19 21 -11 0 -22 4 -25 9 -5 8 -45 8 -174 -3
-39 -3 -43 -2 -39 15 4 15 0 19 -23 19 -23 0 -27 -4 -23 -20z m83 -24 c0 -3
-4 -8 -10 -11 -5 -3 -10 -1 -10 4 0 6 5 11 10 11 6 0 10 -2 10 -4z m95 -6 c-3
-5 -10 -10 -16 -10 -5 0 -9 5 -9 10 0 6 7 10 16 10 8 0 12 -4 9 -10z m-175
-190 c0 -5 -4 -10 -10 -10 -5 0 -10 5 -10 10 0 6 5 10 10 10 6 0 10 -4 10 -10z
m-333 -315 c-1 -27 -4 -32 -14 -23 -16 13 -16 25 0 43 6 8 13 14 14 15 0 0 1
-16 0 -35z m48 5 c3 -5 -1 -10 -10 -10 -9 0 -13 5 -10 10 3 6 8 10 10 10 2 0
7 -4 10 -10z m-75 -69 c-14 -4 -25 -13 -25 -21 0 -8 11 -17 25 -21 22 -6 23
-7 4 -8 -12 -1 -27 6 -34 14 -16 20 3 45 34 44 19 -1 18 -2 -4 -8z m-60 -181
c0 -28 -2 -30 -40 -30 -38 0 -40 2 -40 30 0 28 2 30 40 30 38 0 40 -2 40 -30z
m-5 -65 c0 -28 -29 -25 -33 3 -3 19 0 23 15 20 10 -2 18 -12 18 -23z m-43
-107 c-7 -7 -12 -8 -12 -2 0 14 12 26 19 19 2 -3 -1 -11 -7 -17z m45 -160 c-3
-7 -5 -2 -5 12 0 14 2 19 5 13 2 -7 2 -19 0 -25z m-1040 -2074 c-3 -3 -12 -4
-19 -1 -8 3 -5 6 6 6 11 1 17 -2 13 -5z m-137 -124 c0 -5 -4 -10 -10 -10 -5 0
-10 5 -10 10 0 6 5 10 10 10 6 0 10 -4 10 -10z m453 -307 c-7 -2 -19 -2 -25 0
-7 3 -2 5 12 5 14 0 19 -2 13 -5z"/>
<path d="M6792 3430 c-7 -12 -10 -25 -7 -31 4 -5 3 -43 0 -84 l-7 -75 -37 22
c-40 24 -80 66 -81 86 0 11 -30 18 -30 6 0 -13 83 -126 101 -137 23 -14 24
-30 4 -47 -8 -7 -15 -17 -15 -22 0 -6 21 9 48 33 26 24 46 50 46 56 -1 7 9 24
22 38 24 26 35 53 22 54 -23 2 -27 -2 -33 -29 -4 -16 -11 -33 -17 -36 -11 -7
-6 69 9 154 6 36 -6 42 -25 12z m-46 -191 c19 -22 19 -22 -3 -10 -13 6 -23 16
-23 21 0 15 5 12 26 -11z"/>
<path d="M5771 3132 c-90 -93 -128 -296 -59 -317 23 -8 38 8 38 42 0 34 16 36
30 4 18 -45 70 -88 133 -110 52 -18 62 -18 103 -6 44 13 45 13 56 -11 6 -13
14 -24 18 -24 4 0 10 -9 13 -20 7 -27 93 -66 192 -86 44 -8 116 -29 160 -46
156 -60 373 -129 590 -189 247 -68 414 -117 730 -214 119 -37 219 -64 222 -61
10 10 -30 35 -57 36 -25 0 -44 6 -370 105 -102 32 -225 68 -273 81 -379 103
-824 241 -812 252 4 5 26 1 415 -63 382 -63 427 -73 1060 -230 417 -104 513
-125 561 -125 34 0 37 2 34 26 -3 26 -19 44 -42 44 -17 0 -16 -15 2 -30 51
-42 -15 -30 -500 89 -220 55 -452 111 -515 125 -63 15 -131 31 -150 36 -73 19
-389 73 -850 146 -124 20 -390 110 -390 132 0 4 5 24 11 45 8 30 15 37 34 37
18 0 25 -5 25 -20 0 -11 9 -29 21 -41 16 -16 30 -20 62 -17 33 4 48 0 70 -19
16 -13 41 -23 57 -23 16 0 35 -3 44 -6 11 -4 16 0 16 14 0 12 5 24 10 27 6 3
10 26 10 51 0 32 -4 44 -15 44 -15 0 -22 -20 -27 -75 -3 -35 -35 -45 -75 -24
-18 10 -23 20 -21 43 3 36 -15 52 -20 19 -5 -37 -84 -46 -105 -12 -21 34 -2
49 63 49 60 0 70 6 48 28 -17 17 -103 15 -118 -3 -12 -15 -60 -21 -60 -8 0 4
9 25 20 48 27 56 44 146 36 189 -7 38 -20 46 -30 20 -3 -8 -15 -68 -26 -132
-20 -115 -33 -142 -67 -142 -7 0 -13 -6 -13 -13 0 -15 -61 -47 -90 -47 -25 0
-25 5 0 30 22 22 26 51 10 81 -13 23 -48 25 -79 3 -18 -13 -22 -24 -19 -50 2
-19 1 -34 -3 -34 -18 0 -59 45 -84 93 l-29 55 41 46 c50 57 83 124 83 171 0
34 -1 35 -37 35 -31 0 -44 -8 -82 -48z m99 8 c0 -40 -20 -86 -60 -135 l-32
-40 7 46 c8 52 -4 70 -22 33 -6 -13 -8 -26 -4 -29 4 -2 6 -18 3 -35 -3 -25 -8
-29 -23 -25 -15 5 -19 1 -19 -18 0 -14 5 -27 11 -29 13 -4 3 -68 -10 -68 -18
0 -32 54 -25 99 8 52 46 146 72 175 21 23 73 56 90 56 7 0 12 -13 12 -30z
m300 -190 c-17 -62 -21 -43 -8 31 9 43 14 55 16 37 2 -14 -2 -45 -8 -68z
m-204 -105 c16 -42 -35 -98 -57 -64 -12 20 -11 53 3 67 17 17 47 15 54 -3z
m309 -14 c-3 -6 -14 -9 -25 -8 -24 2 -15 17 11 17 11 0 18 -4 14 -9z m-166
-48 c0 -5 -4 -17 -9 -28 -8 -18 -9 -17 -9 8 -1 15 4 27 9 27 6 0 10 -3 9 -7z
m131 -143 c8 -5 11 -10 5 -10 -5 0 -17 5 -25 10 -8 5 -10 10 -5 10 6 0 17 -5
25 -10z"/>
<path d="M11531 3113 c0 -5 4 -17 9 -28 8 -18 9 -17 9 8 1 15 -3 27 -9 27 -5
0 -10 -3 -9 -7z"/>
<path d="M11563 3061 c1 -14 9 -26 17 -28 10 -3 11 -2 4 4 -7 4 -14 17 -17 28
-5 16 -5 15 -4 -4z"/>
<path d="M6627 2963 c-40 -89 -49 -124 -49 -194 1 -84 41 -130 112 -128 21 1
19 2 -10 11 -47 13 -68 34 -81 80 -14 53 3 132 47 225 37 77 38 83 26 83 -5 0
-25 -35 -45 -77z"/>
<path d="M7117 2947 c6 -70 -12 -226 -27 -241 -16 -16 -11 -45 9 -56 36 -19
70 -11 109 24 44 40 94 46 116 14 18 -25 67 -41 95 -30 19 7 29 3 52 -21 22
-21 34 -27 51 -22 38 12 69 35 86 66 20 34 31 33 52 -4 12 -22 13 -30 2 -47
-14 -23 -16 -50 -3 -50 17 0 41 31 41 54 0 12 10 33 22 46 l22 24 7 -32 c4
-18 12 -38 18 -46 20 -24 69 -39 106 -32 45 9 41 30 -6 33 -27 2 -30 1 -14 -7
18 -8 18 -9 -6 -9 -74 -2 -106 85 -49 132 31 26 40 57 17 57 -7 0 -36 -27 -65
-60 -29 -33 -57 -60 -61 -60 -4 0 -17 13 -29 29 -20 28 -21 32 -7 72 8 23 15
50 15 60 0 28 -36 33 -70 9 -36 -26 -40 -68 -10 -95 11 -10 20 -25 20 -33 0
-19 -74 -92 -93 -92 -29 0 -57 40 -50 72 7 33 -13 60 -57 78 -23 9 -34 9 -58
-4 -17 -9 -33 -25 -37 -36 -4 -14 -15 -20 -36 -20 -28 0 -29 2 -29 44 0 25 -6
48 -14 55 -17 14 -60 5 -77 -15 -23 -28 -27 -12 -26 93 2 71 -2 107 -9 110 -8
3 -10 -15 -7 -60z m533 -122 c0 -18 -21 -65 -30 -65 -12 0 -30 24 -30 42 0 10
10 23 23 28 31 13 37 12 37 -5z m-420 -55 l0 -40 -50 0 c-27 0 -50 4 -50 9 0
18 59 71 79 71 18 0 21 -6 21 -40z m185 -12 c45 -20 31 -38 -30 -38 -59 0 -68
10 -33 34 27 19 30 19 63 4z m-211 -61 c-2 -7 -17 -21 -33 -30 -23 -14 -31
-14 -46 -4 -16 13 -16 14 0 30 20 21 87 24 79 4z m236 -3 c0 -20 -48 -28 -78
-14 l-27 13 30 7 c49 10 75 8 75 -6z"/>
<path d="M6430 2940 c0 -9 32 -30 46 -30 4 0 -1 9 -11 20 -19 21 -35 26 -35
10z"/>
<path d="M9934 2843 c-28 -20 -47 -82 -53 -171 -5 -79 -3 -100 12 -134 18 -39
20 -40 59 -35 45 6 58 19 58 59 0 32 3 34 54 43 35 7 38 6 32 -13 -11 -33 14
-70 61 -93 38 -18 53 -20 106 -14 34 4 90 9 124 10 50 1 68 6 87 24 24 23 24
23 35 3 6 -12 11 -27 11 -35 0 -20 36 -64 45 -55 4 4 -2 33 -13 65 l-20 58 81
5 82 5 -75 8 c-41 5 -78 11 -82 13 -4 3 -4 15 1 27 4 12 11 41 15 65 5 32 3
42 -8 42 -17 0 -23 -16 -32 -80 -4 -32 -11 -50 -20 -50 -8 0 -14 -9 -14 -19 0
-24 -55 -65 -76 -57 -8 3 -19 17 -24 30 -18 49 -81 59 -108 16 -9 -15 -10 -26
-2 -40 10 -18 7 -20 -30 -20 -50 0 -116 32 -125 61 -9 26 20 59 51 59 13 0 25
4 28 9 10 16 -20 19 -70 6 -118 -30 -118 -30 -149 17 -27 40 -27 42 -11 67 27
42 47 92 44 109 -3 18 -55 28 -74 15z m54 -31 c2 -12 -10 -41 -27 -66 -37 -54
-38 -60 -6 -98 32 -38 31 -44 -5 -63 -49 -25 -50 -22 -46 83 4 105 15 145 43
161 24 14 37 9 41 -17z m6 -241 c17 -28 -29 -66 -64 -53 l-21 8 25 27 c25 27
50 35 60 18z m340 -7 c22 -8 20 -31 -3 -43 -13 -7 -23 -6 -36 3 -16 12 -16 13
0 29 19 19 18 19 39 11z"/>
<path d="M5760 2724 c0 -9 6 -14 13 -11 17 6 77 -19 77 -33 0 -5 -3 -9 -7 -8
-5 1 -26 -3 -48 -10 -82 -23 -222 -51 -280 -56 l-60 -5 87 41 c83 39 105 58
92 79 -3 5 -15 8 -27 8 -17 -1 -18 -2 -4 -6 20 -5 22 -17 5 -31 -7 -5 -59 -31
-116 -56 -114 -50 -125 -52 -697 -106 -252 -24 -522 -57 -810 -100 -110 -16
-252 -37 -315 -45 -287 -38 -414 -61 -405 -75 5 -8 31 -5 395 54 521 84 834
126 1080 146 63 5 153 14 200 20 47 5 141 14 210 20 69 6 134 13 145 16 15 4
17 3 5 -4 -28 -18 -280 -98 -505 -162 -344 -97 -1050 -368 -1063 -407 -6 -21
37 -14 138 22 111 40 108 47 -5 9 -42 -14 -79 -24 -81 -21 -5 5 155 77 281
127 238 95 592 216 788 270 44 12 185 57 315 100 131 42 260 80 287 83 55 5
57 6 -90 -48 -223 -83 -603 -254 -750 -338 -197 -112 -365 -228 -365 -253 0
-16 46 -19 55 -4 3 6 -2 10 -12 10 -47 1 190 160 402 270 297 154 717 329 888
370 169 41 182 61 -236 -352 -214 -211 -377 -381 -377 -390 0 -11 8 -18 20
-18 11 0 20 5 20 11 0 5 -5 7 -11 3 -57 -35 153 183 529 550 200 194 264 247
280 232 2 -3 -13 -27 -35 -53 -123 -151 -236 -332 -352 -563 -96 -192 -137
-287 -127 -297 3 -4 16 18 28 48 42 102 187 385 253 494 72 119 176 267 182
261 3 -2 -17 -64 -42 -138 -95 -267 -116 -355 -122 -515 -5 -117 -4 -133 10
-133 9 0 21 9 27 20 12 22 1 27 -19 8 -11 -11 -12 4 -7 82 13 169 27 231 106
468 87 257 101 288 148 315 40 24 29 30 283 -162 238 -180 375 -271 649 -431
69 -40 146 -88 173 -107 44 -31 67 -40 67 -28 0 8 -53 54 -62 55 -11 0 -452
265 -536 322 -148 99 -501 367 -512 387 -6 12 -15 21 -20 21 -5 0 -31 14 -57
30 -52 33 -83 38 -83 14z"/>
<path d="M10981 2708 c0 -13 7 -39 15 -58 l14 -35 -4 43 c-5 50 0 51 73 21 50
-21 51 -23 45 -54 -6 -35 5 -66 38 -101 16 -18 17 -25 7 -42 -19 -31 -5 -52
36 -52 25 0 35 4 35 15 0 13 5 12 28 -5 38 -28 82 -35 107 -16 19 14 19 15 1
22 -10 4 -21 2 -26 -5 -5 -10 -15 -9 -44 3 -65 27 -60 70 12 94 41 13 51 25
32 37 -16 10 -85 -13 -105 -35 -33 -36 -71 -19 -94 42 -13 34 10 62 43 54 27
-7 51 8 41 24 -5 8 -20 10 -43 6 -28 -4 -52 2 -110 29 -87 41 -102 43 -101 13z
m224 -248 c3 -5 1 -10 -4 -10 -6 0 -11 5 -11 10 0 6 2 10 4 10 3 0 8 -4 11
-10z"/>
<path d="M6010 2685 c0 -49 74 -107 241 -188 356 -173 592 -273 889 -377 283
-100 363 -130 428 -160 67 -32 82 -36 82 -21 0 15 -97 53 -585 226 -189 67
-328 126 -638 269 -256 118 -302 143 -359 194 -31 28 -38 40 -33 59 4 16 1 23
-10 23 -9 0 -15 -9 -15 -25z"/>
<path d="M10737 2633 c-11 -10 -8 -80 5 -108 12 -27 45 -34 67 -12 10 10 15 9
24 -4 16 -21 49 -37 65 -32 17 6 15 75 -3 99 -13 18 -14 15 -15 -30 l0 -50
-35 34 -35 34 -16 -22 c-24 -35 -37 -16 -30 44 5 42 3 54 -7 54 -8 0 -17 -3
-20 -7z"/>
<path d="M5510 2508 c-63 -45 -169 -120 -235 -167 -288 -204 -554 -428 -609
-513 -16 -24 -16 -29 -2 -50 8 -13 16 -43 18 -68 3 -49 4 -48 -59 -35 -28 6
-33 5 -33 -10 0 -16 -8 -17 -82 -11 -46 4 -114 12 -153 19 -40 6 -157 10 -275
8 -528 -6 -545 -6 -730 23 -166 25 -187 27 -400 20 -124 -3 -241 -7 -260 -8
l-35 -2 2 -55 c2 -35 -2 -61 -12 -73 -13 -18 -17 -18 -41 -5 -15 7 -31 24 -37
36 -13 29 -29 30 -25 2 4 -30 47 -60 99 -70 39 -7 46 -6 65 15 12 13 31 29 43
35 11 7 21 16 21 21 0 20 -27 9 -60 -25 -32 -33 -60 -45 -60 -26 0 5 7 14 15
21 9 8 15 30 15 59 l0 47 148 4 c238 8 431 2 522 -14 47 -9 151 -21 233 -28
81 -7 147 -16 147 -20 0 -4 6 -8 13 -8 10 0 12 -15 9 -62 -2 -35 -6 -65 -7
-66 -2 -2 -25 6 -50 17 -52 23 -85 27 -85 10 0 -6 6 -9 13 -6 6 2 29 -4 49
-14 21 -11 44 -19 53 -19 17 0 20 -11 5 -26 -5 -5 -6 -15 -2 -21 5 -8 26 5 67
41 33 30 57 57 52 62 -4 4 -21 -6 -38 -22 -39 -37 -48 -23 -37 58 4 34 9 63
11 64 1 1 43 7 92 13 136 17 320 13 513 -9 96 -11 224 -20 285 -19 62 1 144
-4 182 -9 39 -6 126 -14 195 -17 167 -8 190 -12 190 -33 0 -9 -11 -41 -25 -70
l-25 -54 -26 21 c-30 24 -44 20 -44 -12 0 -18 2 -19 10 -7 8 13 12 12 31 -6
17 -18 19 -25 10 -43 -8 -14 -8 -21 -1 -21 6 0 13 6 16 14 3 8 13 12 25 9 24
-7 24 -8 -3 -52 -22 -36 -22 -36 22 9 25 25 44 48 42 53 -2 4 5 7 15 7 26 0
43 19 43 47 0 33 -14 28 -50 -17 -30 -38 -62 -51 -75 -30 -3 5 8 36 25 69 16
33 30 69 30 79 0 18 37 18 1213 14 666 -2 1213 -5 1214 -5 1 -1 -5 -11 -13
-22 -14 -19 -16 -19 -25 -2 -17 30 -99 15 -99 -18 0 -20 7 -19 37 5 20 15 29
17 39 9 11 -9 11 -15 -1 -32 -20 -28 -19 -46 3 -54 9 -3 26 -17 37 -30 l21
-25 53 17 c58 20 75 44 62 92 -6 24 -13 28 -49 31 -27 2 -42 8 -42 17 0 11 36
13 208 8 114 -2 213 -6 220 -8 13 -5 16 -52 6 -79 -5 -13 -9 -14 -20 -5 -26
22 -28 -1 -4 -48 22 -44 24 -46 33 -25 6 12 18 22 28 22 10 0 21 5 24 10 3 6
-2 10 -11 10 -16 0 -16 1 1 20 10 11 22 17 26 14 5 -3 9 4 9 15 0 38 -44 17
-64 -29 -10 -24 2 42 13 72 l10 27 83 -5 c279 -18 493 -47 783 -105 249 -51
325 -65 398 -74 l57 -6 0 -55 c0 -30 -4 -54 -9 -54 -5 0 -26 16 -47 35 -21 19
-43 34 -48 32 -20 -7 -15 -23 11 -35 16 -7 42 -20 58 -30 17 -9 32 -18 34 -19
2 -1 -4 -9 -13 -18 -28 -28 -17 -28 17 0 41 35 87 102 87 128 0 19 5 20 168
14 92 -4 179 -10 195 -13 15 -4 27 -2 27 3 0 15 -261 36 -340 29 -93 -9 -237
8 -461 54 -357 75 -611 113 -834 125 -60 3 -139 9 -175 11 -36 3 -720 9 -1520
14 -849 5 -1511 13 -1590 19 -200 16 -344 33 -354 42 -5 4 -12 44 -16 89 l-7
81 91 92 c137 139 278 248 699 544 115 82 152 103 170 98 21 -6 21 -6 3 9 -11
9 -22 16 -26 16 -3 0 -57 -37 -120 -82z m2176 -1016 c-4 -3 -12 0 -19 7 -9 9
-9 14 3 21 11 7 16 5 18 -6 2 -9 1 -18 -2 -22z m104 -4 c0 -17 -18 -44 -24
-37 -8 7 5 49 15 49 5 0 9 -6 9 -12z m1790 -125 c0 -10 -10 -34 -22 -53 l-23
-35 -3 29 c-6 45 6 76 28 76 12 0 20 -7 20 -17z"/>
<path d="M5874 2566 c-3 -13 1 -39 9 -59 9 -19 23 -71 32 -114 24 -111 63
-256 90 -338 13 -38 46 -149 75 -245 28 -96 53 -181 55 -187 4 -11 25 -19 25
-10 0 6 -65 220 -105 347 -64 201 -148 519 -140 528 2 2 25 -17 52 -43 26 -26
86 -80 133 -119 167 -139 289 -269 369 -394 37 -57 61 -69 54 -24 -7 40 -26
81 -41 87 -9 3 -10 0 -2 -15 27 -51 4 -34 -49 37 -78 104 -177 203 -344 347
-147 126 -187 170 -187 204 0 29 -18 28 -26 -2z"/>
<path d="M11010 2558 c0 -34 14 -88 21 -88 5 0 9 23 9 50 0 38 -4 50 -15 50
-8 0 -15 -6 -15 -12z"/>
<path d="M8931 2353 c-47 -40 -36 -227 21 -356 24 -53 51 -67 90 -46 40 21 49
40 43 90 -5 42 -3 47 17 53 13 3 33 6 46 6 13 0 22 6 22 15 0 19 -18 19 -65
-1 -38 -15 -38 -15 -71 17 -19 18 -34 39 -34 46 0 8 16 36 35 64 36 52 44 96
23 117 -19 19 -102 15 -127 -5z m113 -13 c23 -23 -33 -115 -64 -105 -23 7 -31
-24 -23 -92 7 -66 -10 -71 -26 -9 -14 55 -14 146 -1 181 5 14 20 30 32 35 24
10 67 4 82 -10z m-30 -274 c-47 -41 -53 -33 -33 38 l11 39 25 -26 26 -25 -29
-26z m54 -34 c5 -34 -24 -72 -53 -72 -31 0 -33 22 -5 68 23 38 53 40 58 4z"/>
<path d="M1463 2318 c5 -30 37 -36 37 -8 0 13 -7 20 -20 20 -11 0 -19 -6 -17
-12z"/>
<path d="M9756 2278 c-9 -43 -36 -273 -37 -318 -2 -89 -3 -87 49 -100 78 -18
122 10 122 77 0 42 -21 75 -63 99 l-38 21 37 28 c78 59 80 146 4 198 -35 24
-69 22 -74 -5z m86 -25 c45 -41 29 -117 -36 -167 -20 -15 -36 -30 -36 -34 0
-4 20 -18 44 -30 44 -24 56 -43 56 -94 0 -36 -24 -58 -63 -58 -65 0 -67 7 -53
235 10 176 11 179 44 170 15 -4 35 -14 44 -22z"/>
<path d="M10493 2288 c-6 -7 -24 -40 -41 -73 -27 -54 -31 -73 -37 -187 -6
-113 -5 -128 9 -128 9 0 16 1 17 3 0 1 4 61 8 132 7 111 12 139 35 188 15 31
32 57 37 57 16 0 10 -44 -11 -75 -26 -39 -25 -77 0 -100 61 -55 72 -122 26
-143 -19 -8 -27 -6 -45 11 -23 23 -29 10 -11 -24 20 -35 93 -15 108 30 13 38
-3 82 -43 121 -19 19 -35 38 -35 43 0 6 12 35 27 65 20 41 24 58 16 71 -13 21
-47 26 -60 9z"/>
<path d="M11085 2239 c-28 -14 -62 -70 -76 -123 -11 -46 -9 -189 3 -201 3 -4
34 -9 67 -12 50 -5 65 -3 81 12 34 31 21 96 -28 148 l-26 27 25 28 c48 54 61
96 37 120 -14 14 -55 15 -83 1z m65 -34 c0 -14 -15 -41 -35 -64 -19 -21 -35
-41 -35 -45 0 -3 16 -26 35 -52 24 -31 35 -56 35 -79 0 -37 -12 -45 -71 -45
-34 0 -39 3 -35 18 3 9 8 37 11 62 3 25 8 61 11 81 3 20 5 54 6 76 0 32 6 43
27 56 37 23 51 21 51 -8z m-113 -122 c-3 -10 -5 -4 -5 12 0 17 2 24 5 18 2 -7
2 -21 0 -30z m-10 -55 c-3 -7 -5 -2 -5 12 0 14 2 19 5 13 2 -7 2 -19 0 -25z"/>
<path d="M9200 2158 c0 -22 31 -253 36 -268 4 -11 7 -11 13 -2 4 6 2 51 -5 99
-7 49 -13 107 -13 129 -1 28 -6 44 -16 48 -8 3 -15 0 -15 -6z"/>
<path d="M1450 2071 c0 -9 -8 -11 -24 -7 -14 3 -28 1 -31 -5 -4 -6 2 -13 14
-16 12 -3 21 -9 21 -14 0 -5 4 -9 9 -9 10 0 25 50 16 58 -3 3 -5 0 -5 -7z"/>
<path d="M1361 2054 c0 -11 3 -14 6 -6 3 7 2 16 -1 19 -3 4 -6 -2 -5 -13z"/>
<path d="M3985 2060 c-13 -6 -15 -9 -5 -9 8 0 22 4 30 9 18 12 2 12 -25 0z"/>
<path d="M11261 2039 c-29 -85 0 -168 55 -155 29 8 30 -4 10 -84 -28 -114 -28
-115 -13 -102 13 11 19 27 53 142 35 119 27 151 -25 99 -17 -17 -37 -29 -44
-26 -13 4 -15 97 -2 135 5 16 4 22 -8 22 -8 0 -20 -14 -26 -31z"/>
<path d="M10646 2034 c-10 -25 -8 -26 43 -19 50 7 80 -9 50 -26 -55 -31 -56
-34 -16 -71 43 -41 46 -60 15 -82 -25 -18 -88 -22 -88 -6 0 6 -5 10 -10 10 -7
0 -7 -6 0 -20 20 -37 124 -17 141 27 10 28 -10 77 -37 87 -15 6 -13 10 12 37
23 24 26 33 18 47 -20 31 -117 44 -128 16z"/>
<path d="M9464 1943 c-3 -10 -17 -46 -30 -81 -27 -71 -32 -132 -10 -132 10 0
13 10 9 38 -4 28 2 50 26 94 31 58 40 98 21 98 -6 0 -13 -8 -16 -17z"/>
<path d="M9992 1949 c-16 -6 -22 -15 -20 -31 4 -25 28 -37 28 -14 0 21 40 36
63 24 21 -11 15 -24 -38 -83 -19 -22 -34 -47 -33 -55 6 -28 55 -43 117 -34
l56 9 -55 2 c-114 6 -124 19 -60 83 44 44 52 83 21 100 -24 12 -48 12 -79 -1z"/>
<path d="M5029 1873 c-13 -16 -12 -17 4 -4 16 13 21 21 13 21 -2 0 -10 -8 -17
-17z"/>
<path d="M1240 1660 c0 -5 5 -10 10 -10 6 0 10 5 10 10 0 6 -4 10 -10 10 -5 0
-10 -4 -10 -10z"/>
<path d="M1361 1604 c0 -11 3 -14 6 -6 3 7 2 16 -1 19 -3 4 -6 -2 -5 -13z"/>
<path d="M2496 1478 c-23 -36 -45 -98 -60 -168 -8 -36 -15 -53 -15 -39 -1 25
-17 39 -45 39 -6 0 -26 -13 -44 -29 -34 -32 -43 -76 -20 -99 18 -18 31 -15 79
18 l44 29 22 -24 c12 -13 32 -26 43 -30 27 -9 143 39 199 81 24 19 48 34 52
34 5 0 6 -27 3 -60 -6 -76 8 -78 40 -7 14 32 40 68 66 90 24 20 37 37 29 37
-17 0 -99 -75 -99 -91 0 -6 -4 -7 -10 -4 -5 3 -10 17 -10 31 0 34 -24 31 -74
-9 -62 -51 -62 -51 -61 6 0 45 -3 52 -20 52 -27 0 -57 -60 -51 -102 4 -28 2
-32 -24 -38 -16 -3 -38 -1 -49 5 -36 19 -37 55 -2 125 32 67 55 150 46 166
-10 15 -24 10 -39 -13z m19 -40 c-15 -53 -49 -131 -53 -120 -5 17 38 142 49
142 6 0 7 -10 4 -22z m105 -164 c-11 -46 -27 -64 -36 -40 -8 21 22 90 35 82 5
-3 5 -22 1 -42z m-220 -2 c0 -10 -5 -23 -12 -30 -9 -9 -9 -12 2 -12 25 0 -11
-29 -40 -32 -38 -4 -40 42 -4 71 33 26 54 27 54 3z"/>
<path d="M5965 1452 c-57 -61 -134 -257 -120 -303 10 -31 23 -22 43 34 17 45
25 54 57 65 35 12 39 11 61 -13 16 -17 34 -25 57 -25 34 0 91 23 102 41 11 16
23 10 29 -16 8 -32 39 -33 61 -2 16 21 17 19 11 -45 -7 -75 8 -95 18 -25 8 55
5 156 -5 162 -4 3 -13 -12 -19 -32 -13 -40 -28 -63 -40 -63 -14 0 -19 42 -7
61 9 14 9 21 0 30 -9 9 -13 6 -18 -12 -3 -13 -20 -34 -38 -47 l-32 -22 -6 35
c-7 43 -6 42 -50 50 -32 6 -41 3 -68 -24 -48 -47 -53 -37 -15 26 57 95 41 192
-21 125z m45 -22 c0 -29 -36 -101 -70 -141 l-29 -34 -1 43 c0 32 9 56 35 97
35 56 65 72 65 35z m53 -162 c-8 -42 -10 -45 -31 -32 -26 17 -26 39 0 52 35
16 38 15 31 -20z m37 -8 c0 -16 -4 -30 -10 -30 -11 0 -14 43 -3 53 11 12 13 8
13 -23z m-221 -44 c-6 -26 -13 -45 -16 -43 -2 3 1 26 8 51 6 26 13 45 16 43 2
-3 -1 -26 -8 -51z"/>
<path d="M2051 1395 c-76 -81 -91 -106 -91 -159 0 -44 20 -60 64 -52 40 8 124
78 132 112 8 30 19 30 39 1 12 -19 13 -29 3 -55 -7 -17 -9 -34 -5 -38 13 -13
37 19 37 49 0 23 13 43 55 85 52 52 65 72 47 72 -4 0 -31 -25 -60 -55 l-52
-56 -28 32 c-15 18 -35 50 -44 71 -14 32 -15 38 -3 38 8 0 15 7 15 15 0 34
-41 11 -109 -60z m79 10 c7 -9 10 -18 7 -22 -8 -7 -37 15 -37 28 0 14 16 11
30 -6z m-16 -36 c20 -12 36 -29 36 -39 0 -46 -88 -130 -137 -130 -51 0 -41 81
19 146 22 24 42 44 44 44 1 0 19 -9 38 -21z"/>
<path d="M3480 1413 c-32 -12 -118 -75 -124 -90 -9 -21 3 -54 17 -51 18 3 60
-12 80 -30 23 -20 22 -59 -2 -72 -25 -13 -52 -14 -31 0 8 5 11 12 7 17 -9 8
-27 -15 -27 -36 0 -19 61 -6 78 16 30 41 2 90 -69 121 -21 9 -39 20 -39 23 0
10 63 55 88 63 34 11 26 -10 -14 -34 -19 -12 -33 -25 -30 -27 3 -3 28 11 55
32 44 31 49 39 41 56 -6 10 -12 19 -13 18 -1 0 -9 -3 -17 -6z"/>
<path d="M6956 1408 c-25 -84 -36 -129 -42 -162 -4 -26 -13 -40 -25 -43 -15
-4 -19 -15 -19 -49 0 -29 4 -44 13 -44 23 0 35 15 39 45 3 27 6 30 33 27 23
-2 27 -1 15 7 -8 6 -22 11 -31 11 -15 0 -15 7 3 80 13 52 25 80 34 80 9 0 14
11 14 30 0 30 -27 44 -34 18z m-59 -260 c-3 -7 -5 -2 -5 12 0 14 2 19 5 13 2
-7 2 -19 0 -25z"/>
<path d="M1280 1385 c0 -9 5 -15 11 -13 6 2 11 8 11 13 0 5 -5 11 -11 13 -6 2
-11 -4 -11 -13z"/>
<path d="M3716 1378 c-8 -13 -18 -40 -21 -60 -5 -28 -16 -43 -42 -59 -51 -32
-66 -59 -52 -97 11 -33 38 -42 57 -19 5 6 16 31 23 54 13 47 31 67 68 78 l25
8 -27 -32 c-29 -35 -36 -88 -15 -109 7 -7 31 -12 54 -12 38 0 43 3 53 30 7 23
16 30 35 30 19 0 26 -5 26 -20 0 -34 35 -60 81 -60 36 0 48 6 85 44 l44 43 0
-38 c0 -44 21 -54 40 -19 15 28 24 25 51 -15 28 -40 49 -53 42 -24 -3 10 -9
19 -14 19 -5 0 -16 14 -25 31 -15 30 -15 32 12 60 18 19 23 29 13 29 -16 0
-84 -59 -91 -81 -3 -8 -8 -12 -11 -9 -3 3 1 36 9 74 8 38 11 72 8 75 -4 3 -8
2 -10 -4 -16 -41 -75 -133 -97 -149 -31 -23 -95 -25 -108 -4 -14 20 -6 63 11
63 8 0 17 -11 20 -25 7 -29 17 -17 25 29 6 32 5 33 -27 26 -18 -4 -35 -11 -38
-15 -3 -4 -19 -11 -37 -14 -30 -7 -33 -5 -53 34 l-21 42 20 5 c23 6 29 23 9
23 -7 0 -38 -7 -68 -15 -30 -8 -56 -15 -57 -15 -10 0 0 41 17 73 23 42 24 47
10 47 -5 0 -16 -10 -24 -22z m-55 -182 c-24 -54 -47 -63 -37 -13 6 29 43 74
53 63 3 -2 -4 -25 -16 -50z m129 40 c0 -8 9 -21 20 -29 17 -12 19 -19 11 -41
-11 -28 -47 -36 -69 -14 -25 25 -7 98 23 98 8 0 15 -6 15 -14z"/>
<path d="M8317 1339 c-3 -35 -11 -65 -19 -70 -18 -12 -41 -11 -33 1 10 16 -26
63 -38 51 -6 -6 -21 -11 -33 -11 -24 0 -34 -17 -34 -60 0 -33 22 -45 50 -27
28 17 25 26 -7 24 -35 -3 -44 28 -12 38 16 6 27 1 44 -20 17 -23 27 -27 49
-21 l27 7 -16 -30 c-19 -37 -19 -55 -1 -71 12 -9 16 -5 22 27 9 49 20 63 54
63 19 0 30 -7 38 -25 14 -31 56 -49 80 -35 15 8 14 9 -5 10 -26 0 -67 36 -58
50 4 6 15 10 26 10 22 0 24 8 5 33 -17 22 -32 22 -48 -2 -7 -10 -28 -20 -45
-23 l-32 -4 6 73 c4 46 2 73 -4 73 -6 0 -13 -28 -16 -61z"/>
<path d="M5617 1374 c-4 -4 -7 -28 -8 -53 -1 -69 -11 -94 -39 -101 -15 -4 -24
-12 -22 -22 4 -27 -17 -68 -35 -68 -28 1 -55 69 -47 119 4 27 3 41 -4 41 -16
0 -34 -37 -31 -63 6 -51 -51 -99 -92 -77 -11 6 -19 21 -19 35 0 37 -18 30 -22
-7 -2 -25 -8 -34 -25 -36 -27 -4 -29 5 -8 28 8 9 16 27 17 41 2 18 -2 25 -19
27 -39 6 -63 -15 -63 -53 0 -35 0 -35 -44 -35 -39 0 -45 3 -54 28 -6 18 -5 40
3 67 7 22 13 36 14 31 1 -5 8 -3 16 4 20 17 20 60 0 60 -23 0 -55 -77 -55
-131 0 -64 20 -81 96 -79 74 1 106 1 172 0 44 -1 56 3 76 25 l25 26 16 -25
c18 -27 13 -46 -11 -46 -8 0 -14 -7 -14 -15 0 -8 5 -15 10 -15 6 0 13 7 16 15
4 10 20 15 45 15 26 0 42 5 45 15 6 14 8 13 19 -2 12 -15 14 -13 24 22 6 22
11 45 11 52 0 7 15 10 40 9 21 -2 45 1 52 5 8 5 -6 9 -34 9 -54 0 -54 1 -38
95 8 47 2 74 -13 59z m-360 -187 c-19 -29 -37 -33 -37 -8 0 21 28 43 43 34 4
-3 2 -14 -6 -26z m333 1 c0 -19 -2 -20 -10 -8 -13 19 -13 30 0 30 6 0 10 -10
10 -22z"/>
<path d="M7966 1368 c-2 -7 -9 -47 -15 -88 -7 -41 -15 -90 -18 -109 -8 -44 18
-38 31 7 10 37 11 37 59 17 33 -13 37 -13 45 1 10 18 -1 91 -20 137 -15 38
-74 62 -82 35z m74 -67 c5 -20 10 -49 10 -65 0 -23 -3 -27 -17 -21 -10 4 -28
10 -40 12 -16 4 -23 12 -22 27 2 38 15 71 28 68 9 -2 10 4 5 20 -6 20 -5 21 9
9 9 -7 21 -30 27 -50z"/>
<path d="M7070 1345 c-13 -16 -10 -50 5 -50 6 0 24 -15 41 -33 30 -29 31 -35
23 -71 -5 -22 -8 -50 -7 -63 1 -13 -2 -39 -6 -58 l-7 -35 17 29 c8 15 14 37
11 47 -7 24 15 102 42 154 29 55 27 91 -4 79 -8 -3 -16 -23 -20 -45 -4 -21
-10 -39 -14 -39 -14 0 -39 34 -46 63 -9 34 -19 41 -35 22z"/>
<path d="M7389 1285 c-13 -69 -33 -83 -33 -24 -1 23 -6 34 -16 34 -11 0 -15
-12 -15 -47 0 -35 -5 -51 -20 -62 -27 -20 -32 -20 -40 5 -5 14 0 28 15 44 13
14 20 31 17 39 -10 26 -34 18 -46 -14 -10 -30 -53 -56 -72 -44 -5 3 -9 -2 -9
-10 0 -19 9 -20 45 -6 22 9 27 7 35 -15 12 -31 35 -41 55 -25 12 10 15 9 15
-4 0 -13 5 -16 22 -11 17 6 20 4 15 -9 -4 -9 -2 -16 3 -16 5 0 11 -10 13 -22
2 -13 3 -8 1 10 -2 19 1 41 6 50 4 10 13 46 19 82 6 36 14 75 17 88 4 12 2 22
-4 22 -5 0 -16 -29 -23 -65z m-19 -95 c0 -10 -29 -34 -35 -28 -10 10 8 46 21
41 8 -3 14 -9 14 -13z"/>
<path d="M1070 1309 c0 -18 2 -19 15 -9 12 10 15 9 16 -6 0 -11 3 -14 6 -6 5
14 -14 42 -28 42 -5 0 -9 -10 -9 -21z"/>
<path d="M9145 1272 c-66 -36 -68 -61 -5 -81 84 -26 100 -33 100 -46 0 -14
-22 -25 -51 -25 -10 0 -19 -4 -19 -10 0 -18 46 -11 74 11 26 20 26 22 10 40
-9 11 -35 24 -57 30 -22 6 -51 15 -65 20 l-26 10 27 24 c30 29 37 31 37 10 0
-21 7 -19 41 9 51 44 10 48 -66 8z"/>
<path d="M1706 1249 c-4 -23 -5 -44 -2 -46 2 -2 7 14 11 37 4 23 5 43 2 46 -2
3 -7 -14 -11 -37z"/>
<path d="M6368 1277 c-21 -6 -38 -16 -38 -24 0 -17 18 -16 50 2 37 21 40 19
40 -28 0 -24 6 -51 13 -62 14 -17 15 -17 34 2 19 19 19 19 37 -4 21 -28 52
-30 66 -3 11 20 12 20 38 2 41 -28 90 -45 108 -38 9 4 23 1 31 -5 23 -20 25
-3 3 32 -19 33 -21 33 -26 12 -9 -34 -35 -30 -28 5 7 35 -16 68 -41 58 -14 -5
-16 -13 -11 -37 5 -29 5 -30 -11 -18 -10 8 -25 23 -34 34 -17 20 -17 19 -36
-12 -21 -38 -33 -38 -51 0 -11 22 -16 25 -32 17 -10 -6 -23 -16 -27 -23 -5 -7
-10 10 -13 43 -6 61 -11 64 -72 47z m312 -93 c0 -8 -4 -12 -10 -9 -5 3 -10 10
-10 16 0 5 5 9 10 9 6 0 10 -7 10 -16z"/>
<path d="M7430 1201 c0 -72 7 -104 20 -96 4 2 4 23 0 45 -8 45 1 53 18 15 26
-57 55 -13 45 66 -7 52 -23 39 -24 -19 l0 -47 -24 53 c-13 28 -26 52 -29 52
-3 0 -6 -31 -6 -69z"/>
<path d="M9415 1213 c1 -32 3 -64 4 -70 2 -18 28 -16 39 3 8 15 12 14 31 -5
20 -20 31 -22 107 -19 47 1 88 6 91 11 2 4 18 -1 34 -10 28 -17 31 -17 42 -2
9 12 18 14 37 7 14 -5 37 -8 53 -5 15 2 32 -2 38 -10 6 -7 28 -12 48 -12 27 1
30 3 11 6 -38 7 -44 18 -24 47 12 19 14 30 7 37 -19 19 -48 6 -51 -24 -3 -23
-8 -27 -35 -27 -18 0 -43 7 -55 16 -22 15 -24 15 -29 -5 -7 -27 -21 -27 -50 1
-13 12 -23 16 -23 10 0 -18 -27 -15 -34 4 -8 20 -26 9 -26 -17 0 -12 -7 -19
-18 -19 -28 0 -32 10 -15 36 12 19 13 27 3 39 -25 30 -62 7 -62 -40 0 -31 -23
-33 -39 -4 -8 16 -17 20 -38 16 -24 -5 -28 -3 -28 16 1 51 -4 77 -12 77 -4 0
-7 -26 -6 -57z m171 -34 c8 -14 -18 -31 -30 -19 -9 9 0 30 14 30 5 0 12 -5 16
-11z m334 -14 c0 -8 -7 -15 -15 -15 -16 0 -20 12 -8 23 11 12 23 8 23 -8z"/>
<path d="M5808 1253 c6 -2 12 -11 12 -18 0 -7 -6 -16 -12 -18 -8 -4 -7 -6 3
-6 18 -1 33 25 23 40 -3 5 -13 9 -22 8 -11 0 -12 -3 -4 -6z"/>
<path d="M7592 1238 c-15 -15 -16 -72 -2 -99 11 -20 45 -25 70 -10 24 16 18
80 -10 102 -29 22 -42 23 -58 7z m62 -51 c8 -22 7 -30 -4 -38 -23 -14 -45 -6
-48 19 -8 56 34 71 52 19z"/>
<path d="M9317 1222 c-29 -30 -35 -60 -15 -80 17 -17 88 -16 88 2 0 9 -9 12
-27 9 -26 -3 -27 -3 -5 6 12 6 22 19 22 30 0 11 5 21 12 23 6 2 9 12 5 21 -10
26 -50 20 -80 -11z"/>
<path d="M1702 1165 c0 -16 2 -22 5 -12 2 9 2 23 0 30 -3 6 -5 -1 -5 -18z"/>
<path d="M6806 1148 c-7 -34 -3 -44 13 -33 13 7 15 65 2 65 -5 0 -11 -14 -15
-32z"/>
<path d="M1740 1100 c0 -5 10 -10 23 -10 18 0 19 2 7 10 -19 13 -30 13 -30 0z"/>
<path d="M6835 1088 c15 -48 43 -51 31 -3 -4 14 -13 25 -22 25 -11 0 -14 -6
-9 -22z"/>
<path d="M1823 1093 c9 -2 23 -2 30 0 6 3 -1 5 -18 5 -16 0 -22 -2 -12 -5z"/>
<path d="M2511 1096 c11 -9 69 -14 69 -6 0 6 -16 10 -37 10 -20 0 -34 -2 -32
-4z"/>
<path d="M3048 1093 c7 -3 16 -2 19 1 4 3 -2 6 -13 5 -11 0 -14 -3 -6 -6z"/>
<path d="M3223 1093 c9 -2 23 -2 30 0 6 3 -1 5 -18 5 -16 0 -22 -2 -12 -5z"/>
<path d="M6720 1090 c0 -5 11 -10 24 -10 14 0 28 5 31 10 4 6 -7 10 -24 10
-17 0 -31 -4 -31 -10z"/>
<path d="M2465 920 c3 -5 8 -10 11 -10 2 0 4 5 4 10 0 6 -5 10 -11 10 -5 0 -7
-4 -4 -10z"/>
<path d="M2538 923 c7 -3 16 -2 19 1 4 3 -2 6 -13 5 -11 0 -14 -3 -6 -6z"/>
<path d="M3880 871 c0 -6 5 -13 11 -17 25 -15 -22 -24 -152 -29 -213 -8 -249
-14 -276 -43 -12 -14 -23 -35 -23 -47 0 -30 56 -99 100 -122 19 -10 41 -24 48
-30 7 -7 20 -13 28 -13 8 0 14 -4 14 -9 0 -5 26 -26 58 -47 31 -21 59 -40 62
-44 3 -3 20 -12 38 -19 52 -21 39 -35 -25 -27 -84 10 -216 37 -229 47 -6 5
-13 6 -16 3 -3 -2 -32 7 -64 21 -66 30 -171 65 -194 65 -34 0 -42 -15 -27 -51
25 -62 130 -143 280 -218 28 -15 46 -30 43 -37 -3 -7 2 -18 10 -24 11 -10 14
-9 14 4 0 25 20 19 21 -6 0 -22 1 -22 9 -3 5 11 9 15 9 10 1 -6 10 -11 21 -11
12 0 19 6 18 14 -3 14 -26 29 -98 62 -25 11 -58 29 -75 40 -16 11 -37 23 -45
27 -39 18 -170 130 -170 145 0 12 22 9 55 -8 17 -8 41 -17 55 -19 14 -2 54
-16 90 -30 36 -15 74 -28 85 -29 11 -2 34 -7 50 -12 17 -4 38 -7 47 -5 10 1
26 -3 36 -8 11 -6 62 -13 113 -17 52 -3 98 -8 102 -11 10 -6 37 16 37 31 -1 6
-33 27 -73 46 -70 34 -87 45 -214 129 -35 22 -65 41 -68 41 -10 0 -69 45 -92
70 -39 43 -26 85 28 95 13 3 92 7 174 10 184 7 229 14 233 38 2 10 -5 25 -15
32 -21 17 -33 19 -33 6z"/>
<path d="M4787 820 c-3 -10 2 -27 10 -37 14 -17 14 -17 9 0 -3 10 0 17 7 17 8
0 8 3 -2 9 -7 5 -10 14 -7 20 4 6 3 11 -2 11 -5 0 -12 -9 -15 -20z"/>
<path d="M4080 814 c0 -8 5 -12 10 -9 6 4 8 11 5 16 -9 14 -15 11 -15 -7z"/>
<path d="M4958 823 c6 -2 18 -2 25 0 6 3 1 5 -13 5 -14 0 -19 -2 -12 -5z"/>
<path d="M5353 803 c21 -5 21 -5 2 -49 -12 -29 -19 -35 -36 -31 -14 4 -22 0
-27 -13 -5 -14 -11 -17 -22 -10 -10 6 -11 10 -3 10 7 0 11 6 9 13 -3 6 -7 25
-11 41 -7 34 -24 24 -27 -17 -1 -15 -7 -27 -12 -27 -6 0 -5 -5 2 -12 7 -7 12
-20 12 -30 0 -12 6 -18 17 -16 10 2 18 -1 18 -7 0 -15 43 -55 59 -55 8 0 17
-10 19 -22 4 -22 4 -22 6 2 1 14 8 34 17 45 13 17 16 18 24 5 11 -18 25 -6 33
30 3 15 0 33 -9 45 -9 13 -12 30 -8 53 8 40 -5 52 -51 51 -17 -1 -22 -3 -12
-6z m44 -45 c-3 -7 -5 -2 -5 12 0 14 2 19 5 13 2 -7 2 -19 0 -25z m-37 -84 c0
-8 -4 -13 -9 -9 -6 3 -14 -3 -20 -12 -5 -10 -12 -15 -15 -12 -9 9 5 40 14 34
5 -3 11 -1 15 5 9 15 15 12 15 -6z"/>
<path d="M2490 771 c0 -6 5 -13 10 -16 6 -3 10 1 10 9 0 9 -4 16 -10 16 -5 0
-10 -4 -10 -9z"/>
<path d="M3630 770 c0 -5 5 -10 10 -10 6 0 10 5 10 10 0 6 -4 10 -10 10 -5 0
-10 -4 -10 -10z"/>
<path d="M6093 773 c9 -2 25 -2 35 0 9 3 1 5 -18 5 -19 0 -27 -2 -17 -5z"/>
<path d="M6240 769 c0 -5 9 -9 20 -9 11 0 20 -4 20 -10 0 -5 17 -10 38 -10 21
0 42 -3 46 -7 7 -7 25 -10 96 -14 25 -1 50 -6 55 -10 6 -4 21 -9 35 -11 19 -2
26 -10 28 -30 2 -19 -1 -28 -11 -28 -8 0 -18 -17 -24 -42 -9 -37 -12 -40 -18
-20 -11 32 -22 27 -30 -14 -3 -20 -9 -34 -12 -30 -8 7 -75 -22 -85 -37 -6 -9
-8 -9 -8 1 0 21 -26 13 -38 -13 -6 -14 -16 -25 -22 -25 -5 0 -10 -7 -10 -15 0
-11 -5 -12 -24 -5 -18 6 -28 5 -36 -5 -13 -16 1 -28 22 -20 16 6 45 -21 35
-31 -3 -4 -21 -9 -39 -13 -23 -5 -34 -13 -36 -28 -2 -11 -12 -23 -23 -26 -12
-3 -22 -17 -26 -37 -3 -19 -13 -35 -24 -37 -10 -3 -15 -11 -13 -18 3 -7 0 -16
-5 -20 -6 -3 -9 -11 -6 -16 4 -5 -5 -9 -19 -9 -45 0 -61 -59 -25 -89 l21 -16
-22 -20 -21 -19 5 24 c4 17 -1 33 -15 50 l-21 25 5 -27 c2 -16 0 -28 -5 -28
-5 0 -8 -8 -7 -17 4 -46 -5 -43 -22 7 l-20 55 6 -49 c3 -27 5 -55 5 -63 0 -16
60 -15 72 2 5 6 8 5 8 -2 0 -10 58 -13 256 -13 l257 0 -7 39 c-4 27 -2 41 7
44 6 2 0 8 -15 12 -42 11 -36 39 12 55 35 12 39 15 26 29 -18 22 -9 41 19 41
37 0 53 10 48 29 -2 9 3 23 12 31 14 12 20 10 43 -13 20 -21 23 -27 10 -27
-21 0 -32 -29 -13 -36 23 -9 45 3 39 21 -3 8 -1 15 5 15 6 0 11 -7 11 -15 0
-8 5 -15 10 -15 6 0 18 -16 27 -35 15 -32 15 -36 0 -53 -9 -10 -17 -24 -17
-30 0 -7 -7 -12 -15 -12 -8 0 -15 -5 -15 -11 0 -6 -8 -8 -19 -4 -12 4 -28 -4
-49 -26 -18 -19 -32 -26 -37 -20 -9 16 -35 13 -35 -4 0 -12 14 -15 65 -15 44
0 65 4 65 12 0 9 3 9 12 0 17 -17 165 -16 171 1 4 9 6 9 6 0 1 -10 119 -13
555 -13 l554 0 8 38 c4 20 6 44 5 54 -3 24 17 31 24 8 9 -28 25 -25 25 5 0 13
5 36 12 50 9 20 8 31 -3 52 -11 20 -11 27 -1 30 14 5 17 43 2 43 -6 0 -7 23
-3 60 4 43 3 60 -6 60 -8 0 -11 15 -9 46 l3 47 54 14 c30 7 63 11 73 7 11 -3
46 -3 79 1 51 6 59 10 59 28 1 19 2 20 10 6 6 -11 31 -19 67 -24 72 -9 259 -7
298 3 17 4 46 7 65 6 19 -1 77 -2 128 -3 l93 -1 -4 -50 c-3 -28 -1 -47 4 -44
5 3 9 -8 9 -25 0 -16 -5 -31 -12 -33 -12 -4 -20 -47 -9 -49 91 -10 119 -9 124
5 4 10 13 13 23 9 12 -5 15 -3 9 6 -6 10 0 12 23 6 19 -4 33 -2 37 5 11 17
-16 60 -37 60 -23 0 -23 11 1 41 10 13 19 29 20 34 1 6 9 9 17 7 8 -2 14 2 14
9 0 8 11 9 38 3 20 -4 55 -9 77 -11 103 -10 125 -5 125 31 0 16 7 25 22 29 12
4 19 9 16 12 -8 9 -221 25 -413 31 -88 3 -218 10 -290 15 -139 11 -152 11
-495 34 -124 9 -326 22 -450 31 -266 18 -550 25 -550 13 0 -5 11 -9 24 -9 28
0 56 -9 56 -19 0 -3 -14 -12 -30 -19 -24 -11 -31 -22 -36 -52 -4 -21 -11 -37
-18 -36 -6 2 -8 1 -3 -1 4 -3 7 -14 7 -24 0 -11 -5 -17 -10 -14 -6 3 -13 -2
-16 -12 -9 -25 -114 -124 -125 -117 -5 3 -6 -1 -4 -8 5 -13 -32 -60 -122 -156
-24 -25 -43 -50 -43 -56 0 -6 -7 -20 -15 -30 -8 -11 -15 -28 -15 -38 0 -20
-29 -58 -45 -58 -11 0 -30 38 -41 83 -5 21 -3 27 10 27 10 0 16 -9 17 -22 1
-17 2 -19 6 -5 2 9 9 17 14 17 6 0 4 7 -5 15 -8 8 -31 15 -50 15 -23 0 -42 7
-53 20 -10 10 -28 31 -40 44 -13 14 -23 28 -23 31 0 3 -11 17 -25 29 -20 19
-25 32 -24 62 2 22 1 44 -2 49 -3 9 44 64 56 65 3 0 10 0 16 0 5 0 7 5 4 11
-7 10 23 159 34 170 3 4 29 3 56 0 32 -4 62 -2 83 6 18 8 38 10 45 7 7 -4 4 2
-5 13 -10 11 -18 24 -18 30 0 18 -98 28 -360 38 -132 5 -277 13 -372 20 -27 2
-48 -1 -48 -6z m1260 -88 c0 -5 -6 -11 -12 -14 -18 -6 -39 3 -32 14 7 12 44
12 44 0z m-780 -21 c0 -22 35 -29 42 -8 3 9 9 8 22 -5 17 -16 16 -17 -17 -17
-20 0 -42 3 -51 6 -17 7 -22 44 -6 44 6 0 10 -9 10 -20z m-90 -5 c7 -8 20 -15
30 -15 9 0 25 -9 34 -19 17 -18 16 -20 -18 -32 -20 -7 -36 -16 -36 -19 0 -3
-16 -4 -35 -2 -43 5 -46 22 -4 22 19 0 28 4 23 11 -3 6 -14 9 -24 6 -34 -9
-43 8 -18 36 27 31 31 32 48 12z m832 -25 c-9 -11 -20 -33 -23 -48 -6 -23 -7
-21 -8 14 -1 45 4 54 31 54 17 0 17 -1 0 -20z m1415 -26 c-3 -3 -12 -4 -19 -1
-8 3 -5 6 6 6 11 1 17 -2 13 -5z m-77 -14 c0 -5 -7 -10 -16 -10 -8 0 -12 5 -9
10 3 6 10 10 16 10 5 0 9 -4 9 -10z m-2283 -92 c-2 -13 -4 -3 -4 22 0 25 2 35
4 23 2 -13 2 -33 0 -45z m2627 17 c17 -13 18 -18 7 -41 -14 -31 -26 -23 -36
24 -7 35 0 39 29 17z m-1694 -23 c0 -15 -2 -15 -10 -2 -13 20 -13 33 0 25 6
-3 10 -14 10 -23z m-893 -4 c-3 -8 -6 -5 -6 6 -1 11 2 17 5 13 3 -3 4 -12 1
-19z m880 -77 c-3 -10 -5 -7 -6 7 0 12 -5 22 -11 22 -5 0 -10 10 -10 23 0 20
2 19 15 -7 9 -17 14 -37 12 -45z m-117 20 c0 -12 -20 -25 -27 -18 -7 7 6 27
18 27 5 0 9 -4 9 -9z m-30 -47 c0 -8 -7 -14 -15 -14 -15 0 -21 21 -9 33 10 9
24 -2 24 -19z m-32 -59 c-9 -9 -30 14 -23 25 6 9 10 8 17 -4 6 -10 8 -19 6
-21z m-41 -67 c-2 -13 -4 -5 -4 17 -1 22 1 32 4 23 2 -10 2 -28 0 -40z m-18
10 c0 -18 -3 -27 -6 -20 -9 22 -23 2 -17 -24 5 -18 2 -24 -9 -24 -27 0 -27 14
1 58 15 23 28 42 30 42 1 0 2 -15 1 -32z m-949 -21 c0 -5 -4 -5 -10 -2 -5 3
-10 14 -10 23 0 15 2 15 10 2 5 -8 10 -19 10 -23z m895 -87 c-3 -5 -10 -10
-16 -10 -5 0 -9 5 -9 10 0 6 7 10 16 10 8 0 12 -4 9 -10z m-957 -12 c15 -15
16 -28 2 -28 -5 0 -10 6 -10 14 0 8 -6 17 -12 19 -7 3 -8 6 -2 6 5 1 15 -4 22
-11z m-68 -34 c0 -2 -7 -4 -15 -4 -8 0 -15 4 -15 10 0 5 7 7 15 4 8 -4 15 -8
15 -10z m770 -14 c0 -11 -7 -20 -15 -20 -15 0 -21 21 -8 33 12 13 23 7 23 -13z
m-323 -57 c-3 -10 -5 -4 -5 12 0 17 2 24 5 18 2 -7 2 -21 0 -30z"/>
<path d="M5840 760 c0 -5 5 -10 10 -10 6 0 10 5 10 10 0 6 -4 10 -10 10 -5 0
-10 -4 -10 -10z"/>
<path d="M2610 756 c0 -2 7 -6 15 -10 8 -3 15 -1 15 4 0 6 -7 10 -15 10 -8 0
-15 -2 -15 -4z"/>
<path d="M6053 749 c-13 -4 -23 -15 -23 -24 0 -17 16 -20 25 -5 4 6 10 8 15 5
12 -7 24 15 14 25 -5 4 -19 4 -31 -1z"/>
<path d="M3965 740 c-3 -5 1 -10 9 -10 9 0 16 5 16 10 0 6 -4 10 -9 10 -6 0
-13 -4 -16 -10z"/>
<path d="M1270 724 c0 -8 5 -12 10 -9 6 4 8 11 5 16 -9 14 -15 11 -15 -7z"/>
<path d="M4843 726 c-17 -10 -20 -15 -11 -24 16 -16 28 -15 28 3 0 8 4 15 10
15 5 0 7 -8 4 -17 -5 -14 -4 -15 4 -4 10 14 6 42 -7 40 -3 -1 -16 -6 -28 -13z"/>
<path d="M5820 719 c0 -5 5 -7 10 -4 6 3 10 8 10 11 0 2 -4 4 -10 4 -5 0 -10
-5 -10 -11z"/>
<path d="M6286 715 c4 -8 12 -15 20 -15 8 0 14 7 14 15 0 8 -9 15 -20 15 -13
0 -18 -5 -14 -15z"/>
<path d="M2670 710 c0 -5 5 -10 10 -10 6 0 10 5 10 10 0 6 -4 10 -10 10 -5 0
-10 -4 -10 -10z"/>
<path d="M7140 693 c1 -25 2 -26 11 -10 10 18 11 18 25 0 7 -10 14 -13 14 -8
0 6 10 11 23 12 12 1 39 3 60 4 71 6 38 24 -48 27 l-85 3 0 -28z"/>
<path d="M7330 705 c0 -8 5 -15 10 -15 6 0 10 7 10 15 0 8 -4 15 -10 15 -5 0
-10 -7 -10 -15z"/>
<path d="M2491 701 c-9 -6 -10 -10 -2 -16 7 -3 9 -15 6 -25 -3 -10 -2 -21 3
-24 4 -2 9 13 10 35 3 43 3 43 -17 30z"/>
<path d="M5820 690 c0 -5 5 -10 10 -10 6 0 10 5 10 10 0 6 -4 10 -10 10 -5 0
-10 -4 -10 -10z"/>
<path d="M5816 643 c10 -43 15 -46 31 -23 14 19 13 23 -3 35 -28 21 -35 18
-28 -12z"/>
<path d="M6481 654 c0 -11 3 -14 6 -6 3 7 2 16 -1 19 -3 4 -6 -2 -5 -13z"/>
<path d="M6526 661 c-4 -7 -5 -15 -2 -18 9 -9 19 4 14 18 -4 11 -6 11 -12 0z"/>
<path d="M4852 643 c-16 -29 -6 -70 19 -76 25 -7 32 9 20 48 -5 17 -10 23 -11
15 -1 -8 -5 -4 -9 10 l-7 25 -12 -22z"/>
<path d="M1025 600 c3 -5 8 -10 11 -10 2 0 4 5 4 10 0 6 -5 10 -11 10 -5 0 -7
-4 -4 -10z"/>
<path d="M2725 570 c-3 -5 1 -10 10 -10 9 0 13 5 10 10 -3 6 -8 10 -10 10 -2
0 -7 -4 -10 -10z"/>
<path d="M5511 563 c-18 -20 -6 -29 14 -10 8 9 12 18 8 20 -5 3 -14 -2 -22
-10z"/>
<path d="M9596 563 c-3 -10 -9 -24 -12 -32 -4 -9 -2 -12 7 -9 8 3 27 -1 42 -9
16 -8 35 -12 43 -9 7 3 20 -4 28 -15 18 -26 50 -21 54 9 2 12 10 22 18 22 8 0
14 9 14 20 0 22 -12 26 -116 35 -63 5 -72 4 -78 -12z"/>
<path d="M11506 563 c-6 -14 -5 -15 5 -6 7 7 10 15 7 18 -3 3 -9 -2 -12 -12z"/>
<path d="M2780 550 c0 -5 7 -10 16 -10 8 0 12 5 9 10 -3 6 -10 10 -16 10 -5 0
-9 -4 -9 -10z"/>
<path d="M7082 549 c2 -6 8 -10 13 -10 5 0 11 4 13 10 2 6 -4 11 -13 11 -9 0
-15 -5 -13 -11z"/>
<path d="M7287 547 c-3 -7 -1 -20 3 -28 7 -11 10 -10 16 4 4 10 2 23 -3 28 -7
7 -12 6 -16 -4z"/>
<path d="M2670 530 c0 -5 5 -10 10 -10 6 0 10 5 10 10 0 6 -4 10 -10 10 -5 0
-10 -4 -10 -10z"/>
<path d="M2830 526 c0 -9 5 -16 10 -16 6 0 10 4 10 9 0 6 -4 13 -10 16 -5 3
-10 -1 -10 -9z"/>
<path d="M9826 531 c-4 -6 -2 -11 3 -11 6 0 11 -9 11 -20 0 -16 7 -20 30 -20
22 0 28 4 24 15 -3 8 -16 17 -27 21 -12 4 -25 11 -28 16 -4 6 -9 6 -13 -1z"/>
<path d="M5045 520 c3 -5 8 -10 11 -10 2 0 4 5 4 10 0 6 -5 10 -11 10 -5 0 -7
-4 -4 -10z"/>
<path d="M5367 524 c-7 -7 14 -44 24 -44 9 0 -1 39 -11 45 -4 2 -10 2 -13 -1z"/>
<path d="M7041 514 c0 -11 3 -14 6 -6 3 7 2 16 -1 19 -3 4 -6 -2 -5 -13z"/>
<path d="M4995 510 c-7 -12 2 -30 16 -30 12 0 12 27 0 35 -5 3 -12 1 -16 -5z"/>
<path d="M10116 491 c-3 -5 1 -11 9 -15 9 -3 15 0 15 9 0 16 -16 20 -24 6z"/>
<path d="M2750 480 c0 -5 5 -10 10 -10 6 0 10 5 10 10 0 6 -4 10 -10 10 -5 0
-10 -4 -10 -10z"/>
<path d="M9780 480 c0 -5 7 -10 15 -10 8 0 15 5 15 10 0 6 -7 10 -15 10 -8 0
-15 -4 -15 -10z"/>
<path d="M1050 466 c0 -9 5 -16 10 -16 6 0 10 4 10 9 0 6 -4 13 -10 16 -5 3
-10 -1 -10 -9z"/>
<path d="M4540 470 c0 -5 4 -10 9 -10 6 0 13 5 16 10 3 6 -1 10 -9 10 -9 0
-16 -4 -16 -10z"/>
<path d="M9525 439 c-10 -15 1 -23 20 -15 9 3 13 10 10 16 -8 13 -22 13 -30
-1z"/>
<path d="M7201 424 c0 -11 3 -14 6 -6 3 7 2 16 -1 19 -3 4 -6 -2 -5 -13z"/>
<path d="M987 411 c-3 -14 0 -21 9 -21 16 0 18 9 5 28 -6 10 -10 9 -14 -7z"/>
<path d="M7143 395 c-8 -22 6 -33 17 -15 13 20 12 30 0 30 -6 0 -13 -7 -17
-15z"/>
<path d="M9045 400 c-3 -5 -1 -10 4 -10 6 0 11 5 11 10 0 6 -2 10 -4 10 -3 0
-8 -4 -11 -10z"/>
<path d="M9392 393 c-44 -22 -112 -100 -112 -129 0 -13 -4 -24 -9 -24 -11 0
-31 -86 -31 -130 0 -19 5 -30 14 -30 15 0 26 30 26 73 0 45 64 173 96 193 16
10 42 28 57 41 23 19 25 23 10 23 -10 0 -33 -8 -51 -17z"/>
<path d="M8160 389 c0 -5 5 -7 10 -4 6 3 10 8 10 11 0 2 -4 4 -10 4 -5 0 -10
-5 -10 -11z"/>
<path d="M10385 393 c-32 -8 -39 -20 -16 -28 12 -3 21 -10 21 -15 0 -5 6 -7
14 -4 13 5 20 55 7 53 -3 -1 -15 -3 -26 -6z"/>
<path d="M5400 366 c0 -14 5 -26 10 -26 6 0 10 9 10 19 0 11 -4 23 -10 26 -6
4 -10 -5 -10 -19z"/>
<path d="M5460 350 c0 -13 5 -20 13 -17 6 2 12 10 12 17 0 7 -6 15 -12 18 -8
2 -13 -5 -13 -18z"/>
<path d="M5310 340 c-6 -11 -17 -20 -24 -20 -9 0 -12 -8 -8 -25 3 -18 0 -25
-11 -25 -9 0 -21 -9 -27 -20 -9 -16 -8 -22 5 -26 8 -3 15 -14 15 -23 0 -10 3
-21 7 -25 4 -3 8 -17 10 -29 1 -12 5 -38 8 -58 3 -25 0 -40 -10 -49 -8 -7 -15
-19 -15 -27 0 -19 197 -17 217 2 16 17 17 37 1 53 -9 9 -9 12 0 12 7 0 12 8
12 18 0 9 16 34 35 54 39 41 42 50 19 69 -22 18 -54 22 -70 8 -13 -11 -18 -5
-15 15 1 4 -3 14 -10 22 -6 8 -8 25 -5 38 3 14 2 28 -4 31 -5 3 -10 1 -10 -4
0 -19 -48 -12 -53 7 -4 16 -5 16 -6 0 -1 -21 -31 -24 -31 -4 0 24 -18 28 -30
6z m-20 -116 c0 -8 -4 -12 -10 -9 -5 3 -10 10 -10 16 0 5 5 9 10 9 6 0 10 -7
10 -16z m180 -54 c0 -5 -7 -10 -16 -10 -8 0 -12 5 -9 10 3 6 10 10 16 10 5 0
9 -4 9 -10z"/>
<path d="M5941 314 c0 -11 3 -14 6 -6 3 7 2 16 -1 19 -3 4 -6 -2 -5 -13z"/>
<path d="M4267 314 c-14 -14 -7 -25 13 -22 12 2 21 8 21 13 0 12 -24 18 -34 9z"/>
<path d="M4392 283 c-2 -36 -5 -43 -23 -43 -16 0 -19 -4 -14 -20 6 -18 2 -20
-34 -20 -23 0 -41 -4 -41 -9 0 -18 30 -33 57 -27 28 6 28 6 25 -39 -3 -28 0
-45 7 -45 6 0 11 19 11 44 0 25 5 48 10 51 8 5 7 11 -1 21 -6 7 -8 21 -5 31 6
14 9 14 23 -6 11 -17 12 -26 4 -34 -16 -16 -14 -27 7 -27 14 0 17 8 17 40 0
31 -3 40 -17 40 -13 0 -18 11 -21 43 l-4 42 -1 -42z"/>
<path d="M4240 275 c0 -8 4 -15 10 -15 5 0 7 7 4 15 -4 8 -8 15 -10 15 -2 0
-4 -7 -4 -15z"/>
<path d="M5950 270 c0 -8 8 -24 16 -35 16 -19 16 -19 9 5 -9 31 -25 50 -25 30z"/>
<path d="M4430 260 c0 -5 8 -13 17 -19 11 -6 17 -21 16 -45 -1 -20 3 -36 8
-36 5 0 9 -19 10 -42 1 -42 1 -42 10 -13 5 17 6 43 3 58 -3 16 -1 34 6 42 16
19 5 49 -16 41 -8 -3 -13 -2 -10 3 3 5 -1 12 -10 15 -22 9 -34 7 -34 -4z"/>
<path d="M4866 255 c-3 -8 -1 -15 4 -15 6 0 10 7 10 15 0 8 -2 15 -4 15 -2 0
-6 -7 -10 -15z"/>
<path d="M2212 229 c2 -6 8 -10 13 -10 5 0 11 4 13 10 2 6 -4 11 -13 11 -9 0
-15 -5 -13 -11z"/>
<path d="M3670 223 c0 -13 23 -26 88 -50 102 -37 132 -29 40 12 -137 60 -128
57 -128 38z"/>
<path d="M2247 224 c-3 -3 -3 -12 -1 -19 4 -10 -25 -25 -58 -29 -15 -2 -20
-16 -6 -16 9 0 18 -7 22 -15 6 -16 35 -19 74 -9 29 8 29 42 -2 71 -13 12 -26
20 -29 17z"/>
<path d="M8811 216 c-10 -11 -8 -16 8 -21 12 -3 30 -3 42 0 16 5 18 10 8 21
-6 8 -19 14 -29 14 -10 0 -23 -6 -29 -14z"/>
<path d="M4770 210 c0 -5 5 -10 10 -10 6 0 10 5 10 10 0 6 -4 10 -10 10 -5 0
-10 -4 -10 -10z"/>
<path d="M5870 206 c0 -17 14 -29 23 -20 8 8 -3 34 -14 34 -5 0 -9 -6 -9 -14z"/>
<path d="M5991 174 c0 -11 3 -14 6 -6 3 7 2 16 -1 19 -3 4 -6 -2 -5 -13z"/>
<path d="M11406 172 c-3 -6 3 -21 14 -33 l20 -24 -2 29 c-3 30 -21 45 -32 28z"/>
<path d="M4720 146 c0 -13 -7 -26 -15 -30 -8 -3 -15 -12 -15 -21 0 -21 -37
-19 -43 3 -4 16 -5 16 -6 0 -2 -26 -81 -26 -81 -1 0 14 -2 15 -12 4 -10 -11
-10 -14 0 -18 19 -7 14 -23 -8 -23 -12 0 -20 -7 -20 -16 0 -9 -9 -18 -20 -21
-51 -13 -9 -23 100 -23 l120 0 0 40 c0 22 5 40 10 40 6 0 10 -18 10 -40 0 -22
5 -40 10 -40 6 0 10 18 10 40 0 22 5 40 10 40 6 0 10 -18 10 -40 l0 -41 120 2
c115 1 139 7 125 29 -5 8 -11 8 -20 0 -9 -8 -14 -6 -19 5 -3 8 -12 15 -20 15
-8 0 -17 14 -22 33 -3 17 -18 42 -32 55 -21 20 -27 21 -38 10 -10 -10 -11 -22
-5 -46 10 -34 9 -35 -26 -26 -13 4 -23 14 -23 25 0 10 -6 22 -14 26 -7 4 -15
14 -18 22 -2 8 -18 15 -36 17 -28 3 -32 1 -32 -20z m35 -26 c3 -5 1 -10 -4
-10 -6 0 -11 5 -11 10 0 6 2 10 4 10 3 0 8 -4 11 -10z"/>
<path d="M4660 151 c0 -6 5 -13 10 -16 6 -3 10 1 10 9 0 9 -4 16 -10 16 -5 0
-10 -4 -10 -9z"/>
<path d="M4825 131 c-6 -11 9 -23 19 -14 9 9 7 23 -3 23 -6 0 -12 -4 -16 -9z"/>
<path d="M5850 115 c0 -17 5 -25 13 -22 6 2 12 12 12 22 0 10 -6 20 -12 23 -8
2 -13 -6 -13 -23z"/>
<path d="M4225 111 c-3 -5 -1 -12 5 -16 5 -3 10 1 10 9 0 18 -6 21 -15 7z"/>
<path d="M5000 101 c0 -12 2 -21 4 -21 2 0 12 -3 21 -6 13 -5 16 -2 13 17 -4
31 -38 39 -38 10z"/>
<path d="M8640 109 c0 -5 5 -7 10 -4 6 3 10 8 10 11 0 2 -4 4 -10 4 -5 0 -10
-5 -10 -11z"/>
<path d="M5206 65 c-3 -8 -1 -15 4 -15 6 0 10 7 10 15 0 8 -2 15 -4 15 -2 0
-6 -7 -10 -15z"/>
<path d="M5246 73 c-12 -12 -5 -22 14 -20 11 1 20 4 20 8 0 10 -27 19 -34 12z"/>
<path d="M6641 64 c0 -11 3 -14 6 -6 3 7 2 16 -1 19 -3 4 -6 -2 -5 -13z"/>
<path d="M11440 76 c0 -2 16 -20 36 -40 48 -48 64 -47 64 4 l0 40 -50 0 c-27
0 -50 -2 -50 -4z"/>
<path d="M11550 40 c0 -33 3 -40 20 -40 17 0 20 7 20 40 0 33 -3 40 -20 40
-17 0 -20 -7 -20 -40z"/>
<path d="M11600 40 c0 -29 4 -40 15 -40 11 0 15 11 15 40 0 29 -4 40 -15 40
-11 0 -15 -11 -15 -40z"/>
<path d="M6617 50 c-10 -38 -8 -50 8 -50 16 0 17 10 6 50 l-7 25 -7 -25z"/>
<path d="M4312 35 c-15 -32 -15 -35 -2 -35 6 0 10 9 10 20 0 17 7 20 40 20 22
0 40 5 40 10 0 6 -17 10 -38 10 -32 0 -41 -5 -50 -25z"/>
<path d="M4247 33 c-16 -15 -5 -33 19 -33 20 0 25 4 20 16 -3 9 -6 18 -6 20 0
7 -26 5 -33 -3z"/>
<path d="M5845 30 c3 -5 10 -10 16 -10 5 0 9 5 9 10 0 6 -7 10 -16 10 -8 0
-12 -4 -9 -10z"/>
<path d="M10960 10 c0 -5 5 -10 11 -10 5 0 7 5 4 10 -3 6 -8 10 -11 10 -2 0
-4 -4 -4 -10z"/>
</g>
</svg>
